0
SECTION
2
HEADER
9
$INSUNITS
70
4
9
$ACADVER
1
AC1014
9
$HANDSEED
5
FFFF
0
ENDSEC
0
SECTION
2
TABLES
0
TABLE
2
VPORT
5
8
100
AcDbSymbolTable
0
ENDTAB
0
TABLE
2
LTYPE
5
5
100
AcDbSymbolTable
0
LTYPE
5
14
100
AcDbSymbolTableRecord
100
AcDbLinetypeTableRecord
2
BYBLOCK
70
0
0
LTYPE
5
15
100
AcDbSymbolTableRecord
100
AcDbLinetypeTableRecord
2
BYLAYER
70
0
0
ENDTAB
0
TABLE
2
LAYER
5
2
100
AcDbSymbolTable
70
2
0
LAYER
5
50
100
AcDbSymbolTableRecord
100
AcDbLayerTableRecord
2
0
70
0
6
CONTINUOUS
0
ENDTAB
0
TABLE
2
STYLE
5
3
100
AcDbSymbolTable
70
1
0
STYLE
5
11
100
AcDbSymbolTableRecord
100
AcDbTextStyleTableRecord
2
STANDARD
70
0
0
ENDTAB
0
TABLE
2
VIEW
5
6
100
AcDbSymbolTable
70
0
0
ENDTAB
0
TABLE
2
UCS
5
7
100
AcDbSymbolTable
70
0
0
ENDTAB
0
TABLE
2
APPID
5
9
100
AcDbSymbolTable
70
2
0
APPID
5
12
100
AcDbSymbolTableRecord
100
AcDbRegAppTableRecord
2
ACAD
70
0
0
ENDTAB
0
TABLE
2
DIMSTYLE
5
A
100
AcDbSymbolTable
70
1
0
ENDTAB
0
TABLE
2
BLOCK_RECORD
5
1
100
AcDbSymbolTable
70
1
0
BLOCK_RECORD
5
1F
100
AcDbSymbolTableRecord
100
AcDbBlockTableRecord
2
*MODEL_SPACE
0
BLOCK_RECORD
5
1B
100
AcDbSymbolTableRecord
100
AcDbBlockTableRecord
2
*PAPER_SPACE
0
ENDTAB
0
ENDSEC
0
SECTION
2
BLOCKS
0
BLOCK
5
20
100
AcDbEntity
100
AcDbBlockBegin
2
*MODEL_SPACE
0
ENDBLK
5
21
100
AcDbEntity
100
AcDbBlockEnd
0
BLOCK
5
1C
100
AcDbEntity
100
AcDbBlockBegin
2
*PAPER_SPACE
0
ENDBLK
5
1D
100
AcDbEntity
100
AcDbBlockEnd
0
ENDSEC
0
SECTION
2
ENTITIES
0
LWPOLYLINE
5
100
100
AcDbEntity
8
0
100
AcDbPolyline
90
79
70
1
43
0.0
10
182.91891883999989
20
-100.08108108
42
-0.41421356237309404
10
177.91891883999989
20
-105.08108108
10
-188.08108108000013
20
-105.08108108
42
-0.41421356237308982
10
-193.0810810800001
20
-100.08108107999999
10
-193.0810810800001
20
89.91891892000001
42
-0.41421356237309193
10
-188.0810810800001
20
94.918918920000038
10
-182.91891892000018
20
94.918918920000038
10
-182.9189189200001
20
-94.918918919999996
10
-172.75675676000014
20
-94.918918919999996
10
-172.75675676000014
20
94.918918920000038
10
-162.59459460000011
20
94.918918920000038
10
-162.59459460000011
20
-94.918918919999996
10
-152.43243244000007
20
-94.918918919999982
10
-152.43243244000007
20
94.918918920000053
10
-142.27027028000009
20
94.918918920000038
10
-142.27027028000009
20
-94.918918919999996
10
-132.10810812000008
20
-94.918918919999996
10
-132.10810812000008
20
94.918918920000038
10
-121.94594596000009
20
94.918918920000038
10
-121.94594596000009
20
-94.918918919999996
10
-111.78378380000009
20
-94.918918919999996
10
-111.78378380000009
20
94.918918920000038
10
-101.62162164000009
20
94.918918920000038
10
-101.62162164000009
20
-94.918918919999996
10
-91.459459480000078
20
-94.918918919999996
10
-91.459459480000078
20
94.918918920000038
10
-81.297297320000084
20
94.918918920000038
10
-81.297297320000084
20
-94.918918919999996
10
-71.135135160000118
20
-94.918918919999996
10
-71.135135160000118
20
94.918918920000038
10
-60.972973000000081
20
94.918918920000038
10
-60.972973000000081
20
-94.918918919999996
10
-50.810810840000116
20
-94.918918919999996
10
-50.810810840000116
20
94.918918920000038
10
-40.648648680000079
20
94.918918920000038
10
-40.648648680000079
20
-94.918918919999996
10
-30.486486520000113
20
-94.918918919999996
10
-30.486486520000113
20
94.918918920000038
10
-20.324324360000112
20
94.918918920000038
10
-20.324324360000112
20
-94.918918919999996
10
-10.162162200000111
20
-94.918918919999996
10
-10.162162200000111
20
94.918918920000038
10
-4.0000109891025204e-08
20
94.918918920000038
10
-4.0000109891025204e-08
20
-94.918918919999996
10
10.162162119999891
20
-94.918918919999996
10
10.162162119999891
20
94.918918920000038
10
20.324324279999892
20
94.918918920000038
10
20.324324279999892
20
-94.918918919999996
10
30.486486439999911
20
-94.918918919999982
10
30.486486439999911
20
94.918918920000053
10
40.648648599999916
20
94.918918920000038
10
40.648648599999916
20
-94.918918919999996
10
50.810810759999882
20
-94.918918919999996
10
50.810810759999882
20
94.918918920000038
10
60.972972919999876
20
94.918918920000038
10
60.972972919999876
20
-94.918918919999996
10
71.135135079999884
20
-94.918918919999996
10
71.135135079999884
20
94.918918920000038
10
81.297297239999878
20
94.918918920000038
10
81.297297239999878
20
-94.918918919999996
10
91.459459399999886
20
-94.918918919999996
10
91.459459399999886
20
94.918918920000038
10
101.62162155999988
20
94.918918920000038
10
101.62162155999988
20
-94.918918919999996
10
111.78378371999989
20
-94.918918919999996
10
111.78378371999989
20
94.918918920000038
10
121.94594587999988
20
94.918918920000038
10
121.94594587999988
20
-94.918918919999996
10
132.10810803999988
20
-94.918918919999996
10
132.10810803999988
20
94.918918920000038
10
142.27027019999986
20
94.918918920000038
10
142.27027019999986
20
-94.918918919999996
10
152.43243235999989
20
-94.918918919999996
10
152.43243235999989
20
94.918918920000038
10
162.59459451999984
20
94.918918920000038
10
162.59459451999984
20
-94.918918919999996
10
172.75675667999988
20
-94.918918919999996
10
172.75675667999988
20
94.918918920000038
10
182.91891883999989
20
94.918918920000038
0
LWPOLYLINE
5
101
100
AcDbEntity
8
0
100
AcDbPolyline
90
6
70
1
43
0.0
10
182.91891883999989
20
-110.24324323999998
42
-0.41421356237309404
10
177.91891883999989
20
-115.24324323999998
10
-188.08108108000013
20
-115.24324324
42
-0.41421356237308982
10
-193.0810810800001
20
-110.24324323999998
10
-193.08108108000005
20
-105.08108107999999
10
182.91891883999989
20
-105.08108108000003
0
LWPOLYLINE
5
102
100
AcDbEntity
8
0
100
AcDbPolyline
90
6
70
1
43
0.0
10
182.91891883999989
20
-120.40540539999998
42
-0.41421356237309404
10
177.91891883999989
20
-125.40540539999998
10
-188.08108108000013
20
-125.40540540000001
42
-0.41421356237308982
10
-193.0810810800001
20
-120.40540539999998
10
-193.08108108000005
20
-115.24324323999998
10
182.91891883999989
20
-115.24324324
0
LWPOLYLINE
5
103
100
AcDbEntity
8
0
100
AcDbPolyline
90
6
70
1
43
0.0
10
182.91891883999989
20
-130.56756755999999
42
-0.41421356237309404
10
177.91891883999989
20
-135.56756755999999
10
-188.08108108000013
20
-135.56756755999999
42
-0.41421356237308982
10
-193.0810810800001
20
-130.56756755999996
10
-193.08108108000005
20
-125.40540539999998
10
182.91891883999989
20
-125.40540540000001
0
LWPOLYLINE
5
104
100
AcDbEntity
8
0
100
AcDbPolyline
90
4
70
1
43
0.0
10
-193.08108108000005
20
-135.56756755999996
10
182.91891883999989
20
-135.56756755999999
10
182.91891883999989
20
-145.72972971999999
10
-193.08108108000005
20
-145.72972971999997
0
LWPOLYLINE
5
105
100
AcDbEntity
8
0
100
AcDbPolyline
90
4
70
1
43
0.0
10
-193.08108108000005
20
-145.72972971999997
10
182.91891883999989
20
-145.72972971999999
10
182.91891883999989
20
-155.89189188000003
10
-193.08108108000005
20
-155.89189188000003
0
LWPOLYLINE
5
106
100
AcDbEntity
8
0
100
AcDbPolyline
90
79
70
1
43
0.0
10
193.08108108000022
20
-89.918918919999967
42
-0.41421356237309709
10
188.08108108000022
20
-94.918918919999982
10
182.91891883999989
20
-94.918918919999967
10
182.91891883999989
20
94.918918920000038
10
172.75675667999991
20
94.918918920000038
10
172.75675667999991
20
-94.918918919999967
10
162.59459451999987
20
-94.918918919999967
10
162.59459451999987
20
94.918918920000038
10
152.43243235999989
20
94.918918920000038
10
152.43243235999989
20
-94.918918919999967
10
142.27027019999986
20
-94.918918919999967
10
142.27027019999986
20
94.918918920000038
10
132.10810803999991
20
94.918918920000038
10
132.10810803999991
20
-94.918918919999967
10
121.94594587999987
20
-94.918918919999967
10
121.94594587999987
20
94.918918920000038
10
111.7837837199999
20
94.918918920000038
10
111.7837837199999
20
-94.918918919999967
10
101.62162155999987
20
-94.918918919999967
10
101.62162155999987
20
94.918918920000038
10
91.459459399999901
20
94.918918920000038
10
91.459459399999901
20
-94.918918919999967
10
81.297297239999864
20
-94.918918919999967
10
81.297297239999864
20
94.918918920000038
10
71.135135079999898
20
94.918918920000038
10
71.135135079999898
20
-94.918918919999967
10
60.972972919999862
20
-94.918918919999982
10
60.972972919999862
20
94.918918920000053
10
50.810810759999896
20
94.918918920000038
10
50.810810759999896
20
-94.918918919999967
10
40.64864859999993
20
-94.918918919999967
10
40.64864859999993
20
94.918918920000038
10
30.486486439999894
20
94.918918920000067
10
30.486486439999894
20
-94.918918919999967
10
20.324324279999892
20
-94.918918919999967
10
20.324324279999892
20
94.918918920000038
10
10.162162119999891
20
94.918918920000038
10
10.162162119999891
20
-94.918918919999967
10
-4.0000109891025204e-08
20
-94.918918919999967
10
-4.0000109891025204e-08
20
94.918918920000038
10
-10.162162200000111
20
94.918918920000038
10
-10.162162200000111
20
-94.918918919999967
10
-20.324324360000112
20
-94.918918919999967
10
-20.324324360000112
20
94.918918920000038
10
-30.486486520000096
20
94.918918920000038
10
-30.486486520000096
20
-94.918918919999967
10
-40.648648680000093
20
-94.918918919999967
10
-40.648648680000093
20
94.918918920000038
10
-50.810810840000102
20
94.918918920000038
10
-50.810810840000102
20
-94.918918919999967
10
-60.972973000000096
20
-94.918918919999967
10
-60.972973000000096
20
94.918918920000038
10
-71.135135160000104
20
94.918918920000038
10
-71.135135160000104
20
-94.918918919999967
10
-81.297297320000084
20
-94.918918919999967
10
-81.297297320000084
20
94.918918920000038
10
-91.459459480000078
20
94.918918920000038
10
-91.459459480000078
20
-94.918918919999967
10
-101.62162164000009
20
-94.918918919999967
10
-101.62162164000009
20
94.918918920000038
10
-111.78378380000009
20
94.918918920000038
10
-111.78378380000009
20
-94.918918919999996
10
-121.94594596000009
20
-94.918918919999967
10
-121.94594596000009
20
94.918918920000038
10
-132.10810812000008
20
94.918918920000038
10
-132.10810812000008
20
-94.918918919999967
10
-142.27027028000006
20
-94.918918919999967
10
-142.27027028000006
20
94.918918920000038
10
-152.43243244000007
20
94.918918920000067
10
-152.43243244000007
20
-94.918918919999967
10
-162.59459460000011
20
-94.918918919999967
10
-162.59459460000011
20
94.918918920000038
10
-172.75675676000009
20
94.918918920000038
10
-172.75675676000009
20
-94.918918919999967
10
-182.9189189200001
20
-94.918918919999967
10
-182.9189189200001
20
100.08108108000008
42
-0.41421356237309814
10
-177.91891892000001
20
105.08108108000003
10
188.08108107999993
20
105.08108108000005
42
-0.41421356237308982
10
193.08108107999988
20
100.08108108000003
0
LWPOLYLINE
5
107
100
AcDbEntity
8
0
100
AcDbPolyline
90
6
70
1
43
0.0
10
-182.9189189200001
20
110.24324324000004
42
-0.41421356237309404
10
-177.9189189200001
20
115.24324324000004
10
188.08108107999993
20
115.24324324000006
42
-0.41421356237308982
10
193.08108107999988
20
110.24324324000004
10
193.08108107999985
20
105.08108108000003
10
-182.9189189200001
20
105.08108108000003
0
LWPOLYLINE
5
108
100
AcDbEntity
8
0
100
AcDbPolyline
90
6
70
1
43
0.0
10
188.08108107999993
20
125.40540540000006
42
-0.41421356237308982
10
193.08108107999988
20
120.40540540000003
10
193.08108107999985
20
115.24324324000004
10
-182.9189189200001
20
115.24324324000004
10
-182.9189189200001
20
120.40540540000003
42
-0.41421356237309603
10
-177.91891892000001
20
125.40540540000003
0
LWPOLYLINE
5
109
100
AcDbEntity
8
0
100
AcDbPolyline
90
6
70
1
43
0.0
10
-182.9189189200001
20
130.56756756000001
42
-0.41421356237309404
10
-177.9189189200001
20
135.56756756000001
10
188.08108107999993
20
135.56756756000004
42
-0.41421356237308982
10
193.08108107999988
20
130.56756756000001
10
193.08108107999985
20
125.40540540000003
10
-182.9189189200001
20
125.40540540000003
0
LWPOLYLINE
5
110
100
AcDbEntity
8
0
100
AcDbPolyline
90
4
70
1
43
0.0
10
193.08108107999985
20
135.56756756000001
10
-182.9189189200001
20
135.56756756000001
10
-182.9189189200001
20
145.72972972000002
10
193.08108107999985
20
145.72972972000002
0
LWPOLYLINE
5
111
100
AcDbEntity
8
0
100
AcDbPolyline
90
4
70
1
43
0.0
10
193.08108107999985
20
145.72972972000002
10
-182.9189189200001
20
145.72972972000002
10
-182.9189189200001
20
155.89189188000003
10
193.08108107999985
20
155.89189188000003
0
ENDSEC
0
SECTION
2
OBJECTS
0
DICTIONARY
5
C
100
AcDbDictionary
3
ACAD_GROUP
350
D
3
ACAD_MLINESTYLE
350
17
0
DICTIONARY
5
D
100
AcDbDictionary
0
DICTIONARY
5
1A
330
C
100
AcDbDictionary
0
DICTIONARY
5
17
100
AcDbDictionary
0
ENDSEC
0
EOF
