0
SECTION
2
HEADER
9
$INSUNITS
70
4
9
$ACADVER
1
AC1014
9
$HANDSEED
5
FFFF
0
ENDSEC
0
SECTION
2
TABLES
0
TABLE
2
VPORT
5
8
100
AcDbSymbolTable
0
ENDTAB
0
TABLE
2
LTYPE
5
5
100
AcDbSymbolTable
0
LTYPE
5
14
100
AcDbSymbolTableRecord
100
AcDbLinetypeTableRecord
2
BYBLOCK
70
0
0
LTYPE
5
15
100
AcDbSymbolTableRecord
100
AcDbLinetypeTableRecord
2
BYLAYER
70
0
0
ENDTAB
0
TABLE
2
LAYER
5
2
100
AcDbSymbolTable
70
2
0
LAYER
5
50
100
AcDbSymbolTableRecord
100
AcDbLayerTableRecord
2
0
70
0
6
CONTINUOUS
0
ENDTAB
0
TABLE
2
STYLE
5
3
100
AcDbSymbolTable
70
1
0
STYLE
5
11
100
AcDbSymbolTableRecord
100
AcDbTextStyleTableRecord
2
STANDARD
70
0
0
ENDTAB
0
TABLE
2
VIEW
5
6
100
AcDbSymbolTable
70
0
0
ENDTAB
0
TABLE
2
UCS
5
7
100
AcDbSymbolTable
70
0
0
ENDTAB
0
TABLE
2
APPID
5
9
100
AcDbSymbolTable
70
2
0
APPID
5
12
100
AcDbSymbolTableRecord
100
AcDbRegAppTableRecord
2
ACAD
70
0
0
ENDTAB
0
TABLE
2
DIMSTYLE
5
A
100
AcDbSymbolTable
70
1
0
ENDTAB
0
TABLE
2
BLOCK_RECORD
5
1
100
AcDbSymbolTable
70
1
0
BLOCK_RECORD
5
1F
100
AcDbSymbolTableRecord
100
AcDbBlockTableRecord
2
*MODEL_SPACE
0
BLOCK_RECORD
5
1B
100
AcDbSymbolTableRecord
100
AcDbBlockTableRecord
2
*PAPER_SPACE
0
ENDTAB
0
ENDSEC
0
SECTION
2
BLOCKS
0
BLOCK
5
20
100
AcDbEntity
100
AcDbBlockBegin
2
*MODEL_SPACE
0
ENDBLK
5
21
100
AcDbEntity
100
AcDbBlockEnd
0
BLOCK
5
1C
100
AcDbEntity
100
AcDbBlockBegin
2
*PAPER_SPACE
0
ENDBLK
5
1D
100
AcDbEntity
100
AcDbBlockEnd
0
ENDSEC
0
SECTION
2
ENTITIES
0
LWPOLYLINE
5
100
100
AcDbEntity
8
0
100
AcDbPolyline
90
4
70
1
43
0.0
10
193.08108107999988
20
189.72972972000002
10
-182.91891892000007
20
189.72972972000002
10
-182.91891892000007
20
199.89189187999997
10
193.08108107999988
20
199.89189188
0
LWPOLYLINE
5
101
100
AcDbEntity
8
0
100
AcDbPolyline
90
4
70
1
43
0.0
10
193.08108107999988
20
179.56756756000001
10
-182.91891892000007
20
179.56756756000001
10
-182.91891892000007
20
189.72972972000002
10
193.08108107999988
20
189.72972972000002
0
LWPOLYLINE
5
102
100
AcDbEntity
8
0
100
AcDbPolyline
90
6
70
1
43
0.0
10
-182.91891892000007
20
174.56756756000001
42
-0.41421356237309298
10
-177.91891892000001
20
179.56756756000001
10
188.08108107999993
20
179.56756755999999
42
-0.41421356237309298
10
193.08108107999993
20
174.56756756000001
10
193.08108107999988
20
169.40540540000001
10
-182.91891892000007
20
169.40540540000001
0
LWPOLYLINE
5
103
100
AcDbEntity
8
0
100
AcDbPolyline
90
6
70
1
43
0.0
10
188.08108107999993
20
169.40540540000001
42
-0.41421356237309509
10
193.08108107999993
20
164.40540540000001
10
193.08108107999988
20
159.24324324
10
-182.91891892000007
20
159.24324324
10
-182.91891892000001
20
164.40540540000001
42
-0.41421356237309509
10
-177.91891892000001
20
169.40540540000001
0
LWPOLYLINE
5
104
100
AcDbEntity
8
0
100
AcDbPolyline
90
6
70
1
43
0.0
10
-182.91891892000001
20
154.24324324
42
-0.41421356237309404
10
-177.91891892000001
20
159.24324324
10
188.08108107999993
20
159.24324324
42
-0.41421356237309404
10
193.08108107999993
20
154.24324324
10
193.08108107999988
20
149.08108107999999
10
-182.91891892000007
20
149.08108107999999
0
LWPOLYLINE
5
105
100
AcDbEntity
8
0
100
AcDbPolyline
90
79
70
1
43
0.0
10
193.08108108000013
20
-133.91891892000001
42
-0.41421356237309193
10
188.08108108000016
20
-138.91891892000001
10
182.91891883999992
20
-138.91891892000001
10
182.91891883999992
20
138.91891892000001
10
172.75675667999994
20
138.91891892000001
10
172.75675667999994
20
-138.91891892000001
10
162.5945945199999
20
-138.91891892000001
10
162.5945945199999
20
138.91891892000001
10
152.43243235999995
20
138.91891892000001
10
152.43243235999995
20
-138.91891892000001
10
142.27027019999991
20
-138.91891892000001
10
142.27027019999991
20
138.91891892000001
10
132.10810803999993
20
138.91891892000001
10
132.10810803999993
20
-138.91891892000001
10
121.9459458799999
20
-138.91891892000001
10
121.9459458799999
20
138.91891892000001
10
111.78378371999995
20
138.91891892000001
10
111.78378371999995
20
-138.91891892000001
10
101.62162155999991
20
-138.91891892000001
10
101.62162155999991
20
138.91891892000001
10
91.459459399999929
20
138.91891892000001
10
91.459459399999929
20
-138.91891892000001
10
81.297297239999892
20
-138.91891892000001
10
81.297297239999892
20
138.91891892000001
10
71.135135079999941
20
138.91891892000001
10
71.135135079999941
20
-138.91891892000001
10
60.972972919999897
20
-138.91891892000001
10
60.972972919999897
20
138.91891892000001
10
50.810810759999931
20
138.91891892000001
10
50.810810759999931
20
-138.91891892000001
10
40.648648599999966
20
-138.91891892000001
10
40.648648599999966
20
138.91891892000001
10
30.486486439999929
20
138.91891892000001
10
30.486486439999929
20
-138.91891892000001
10
20.324324279999928
20
-138.91891892000001
10
20.324324279999928
20
138.91891892000001
10
10.162162119999927
20
138.91891892000001
10
10.162162119999927
20
-138.91891892000001
10
-4.0000074363888416e-08
20
-138.91891892000001
10
-4.0000074363888416e-08
20
138.91891892000001
10
-10.162162200000076
20
138.91891892000001
10
-10.162162200000076
20
-138.91891892000001
10
-20.324324360000077
20
-138.91891892000001
10
-20.324324360000077
20
138.91891892000001
10
-30.48648652000006
20
138.91891892000001
10
-30.48648652000006
20
-138.91891892000001
10
-40.648648680000065
20
-138.91891892000001
10
-40.648648680000065
20
138.91891892000001
10
-50.810810840000059
20
138.91891892000001
10
-50.810810840000059
20
-138.91891892000001
10
-60.972973000000067
20
-138.91891892000001
10
-60.972973000000067
20
138.91891892000001
10
-71.135135160000061
20
138.91891892000001
10
-71.135135160000061
20
-138.91891892000001
10
-81.297297320000041
20
-138.91891892000001
10
-81.297297320000041
20
138.91891892000001
10
-91.459459480000049
20
138.91891892000001
10
-91.459459480000049
20
-138.91891892000001
10
-101.62162164000006
20
-138.91891892000001
10
-101.62162164000006
20
138.91891892000001
10
-111.78378380000005
20
138.91891892000001
10
-111.78378380000005
20
-138.91891892000001
10
-121.94594596000005
20
-138.91891892000001
10
-121.94594596000005
20
138.91891892000001
10
-132.10810812000005
20
138.91891892000001
10
-132.10810812000005
20
-138.91891892000001
10
-142.27027028000003
20
-138.91891892000001
10
-142.27027028000003
20
138.91891892000001
10
-152.43243244000004
20
138.91891892000001
10
-152.43243244000004
20
-138.91891892000001
10
-162.59459460000005
20
-138.91891892000001
10
-162.59459460000005
20
138.91891892000001
10
-172.75675676000006
20
138.91891892000001
10
-172.75675676000006
20
-138.91891892000001
10
-182.91891892000007
20
-138.91891891999998
10
-182.91891892000007
20
144.08108107999999
42
-0.41421356237309404
10
-177.91891892000001
20
149.08108107999999
10
188.08108107999993
20
149.08108107999999
42
-0.41421356237309814
10
193.08108107999993
20
144.08108107999999
0
LWPOLYLINE
5
106
100
AcDbEntity
8
0
100
AcDbPolyline
90
79
70
1
43
0.0
10
182.91891883999989
20
-144.08108107999999
42
-0.41421356237309193
10
177.91891883999992
20
-149.08108107999999
10
-188.0810810800001
20
-149.08108108000005
42
-0.41421356237309509
10
-193.08108108000005
20
-144.08108107999999
10
-193.08108108000005
20
133.91891892000001
42
-0.41421356237309404
10
-188.08108108000005
20
138.91891892000001
10
-182.91891892000001
20
138.91891892000001
10
-182.91891892000007
20
-138.91891892000001
10
-172.75675676000006
20
-138.91891892000001
10
-172.75675676000006
20
138.91891892000001
10
-162.59459460000005
20
138.91891892000001
10
-162.59459460000005
20
-138.91891892000001
10
-152.43243244000004
20
-138.91891892000001
10
-152.43243244000004
20
138.91891892000001
10
-142.27027028000003
20
138.91891892000001
10
-142.27027028000003
20
-138.91891892000001
10
-132.10810812000005
20
-138.91891892000001
10
-132.10810812000005
20
138.91891892000001
10
-121.94594596000005
20
138.91891892000001
10
-121.94594596000005
20
-138.91891892000001
10
-111.78378380000005
20
-138.91891892000001
10
-111.78378380000005
20
138.91891892000001
10
-101.62162164000006
20
138.91891892000001
10
-101.62162164000006
20
-138.91891892000001
10
-91.459459480000049
20
-138.91891892000001
10
-91.459459480000049
20
138.91891892000001
10
-81.297297320000041
20
138.91891892000001
10
-81.297297320000041
20
-138.91891892000001
10
-71.135135160000061
20
-138.91891892000001
10
-71.135135160000061
20
138.91891892000001
10
-60.972973000000067
20
138.91891892000001
10
-60.972973000000067
20
-138.91891892000001
10
-50.810810840000059
20
-138.91891892000001
10
-50.810810840000059
20
138.91891892000001
10
-40.648648680000065
20
138.91891892000001
10
-40.648648680000065
20
-138.91891892000001
10
-30.486486520000078
20
-138.91891892000001
10
-30.486486520000078
20
138.91891892000001
10
-20.324324360000077
20
138.91891892000001
10
-20.324324360000077
20
-138.91891892000001
10
-10.162162200000076
20
-138.91891892000001
10
-10.162162200000076
20
138.91891892000001
10
-4.0000074363888416e-08
20
138.91891892000001
10
-4.0000074363888416e-08
20
-138.91891892000001
10
10.162162119999927
20
-138.91891892000001
10
10.162162119999927
20
138.91891892000001
10
20.324324279999928
20
138.91891892000001
10
20.324324279999928
20
-138.91891892000001
10
30.486486439999929
20
-138.91891892000001
10
30.486486439999929
20
138.91891892000001
10
40.64864859999993
20
138.91891892000001
10
40.64864859999993
20
-138.91891892000001
10
50.810810759999896
20
-138.91891892000001
10
50.810810759999896
20
138.91891892000001
10
60.972972919999933
20
138.91891892000001
10
60.972972919999933
20
-138.91891892000001
10
71.135135079999898
20
-138.91891892000001
10
71.135135079999898
20
138.91891892000001
10
81.297297239999935
20
138.91891892000001
10
81.297297239999935
20
-138.91891892000001
10
91.459459399999901
20
-138.91891892000001
10
91.459459399999901
20
138.91891892000001
10
101.62162155999994
20
138.91891892000001
10
101.62162155999994
20
-138.91891892000001
10
111.7837837199999
20
-138.91891892000001
10
111.7837837199999
20
138.91891892000001
10
121.94594587999994
20
138.91891892000001
10
121.94594587999994
20
-138.91891892000001
10
132.10810803999991
20
-138.91891892000001
10
132.10810803999991
20
138.91891892000001
10
142.27027019999986
20
138.91891892000001
10
142.27027019999986
20
-138.91891892000001
10
152.43243235999989
20
-138.91891892000001
10
152.43243235999989
20
138.91891892000001
10
162.59459451999987
20
138.91891892000001
10
162.59459451999987
20
-138.91891892000001
10
172.75675667999991
20
-138.91891892000001
10
172.75675667999991
20
138.91891892000001
10
182.91891883999989
20
138.91891892000001
0
LWPOLYLINE
5
107
100
AcDbEntity
8
0
100
AcDbPolyline
90
6
70
1
43
0.0
10
182.91891883999989
20
-154.24324324
42
-0.41421356237309193
10
177.91891883999992
20
-159.24324324
10
-188.0810810800001
20
-159.24324324000003
42
-0.41421356237309509
10
-193.08108108000005
20
-154.24324324
10
-193.08108108000002
20
-149.08108107999999
10
182.91891883999992
20
-149.08108107999999
0
LWPOLYLINE
5
108
100
AcDbEntity
8
0
100
AcDbPolyline
90
6
70
1
43
0.0
10
182.91891883999989
20
-164.40540540000001
42
-0.41421356237309298
10
177.91891883999992
20
-169.40540540000001
10
-188.0810810800001
20
-169.40540540000003
42
-0.41421356237309509
10
-193.08108108000005
20
-164.40540540000001
10
-193.08108108000002
20
-159.24324324
10
182.91891883999992
20
-159.24324324
0
LWPOLYLINE
5
109
100
AcDbEntity
8
0
100
AcDbPolyline
90
6
70
1
43
0.0
10
182.91891883999992
20
-174.56756756000001
42
-0.41421356237309087
10
177.91891883999992
20
-179.56756756000001
10
-188.0810810800001
20
-179.56756756000001
42
-0.41421356237309298
10
-193.08108108000005
20
-174.56756756000001
10
-193.08108108000002
20
-169.40540540000001
10
182.91891883999992
20
-169.40540540000001
0
LWPOLYLINE
5
110
100
AcDbEntity
8
0
100
AcDbPolyline
90
4
70
1
43
0.0
10
-193.08108108000002
20
-179.56756756000001
10
182.91891883999992
20
-179.56756756000001
10
182.91891883999992
20
-189.72972972000002
10
-193.08108108000002
20
-189.72972972000002
0
LWPOLYLINE
5
111
100
AcDbEntity
8
0
100
AcDbPolyline
90
4
70
1
43
0.0
10
-193.08108108000002
20
-189.72972972000002
10
182.91891883999992
20
-189.72972972000002
10
182.91891883999992
20
-199.89189188
10
-193.08108108000002
20
-199.89189187999997
0
ENDSEC
0
SECTION
2
OBJECTS
0
DICTIONARY
5
C
100
AcDbDictionary
3
ACAD_GROUP
350
D
3
ACAD_MLINESTYLE
350
17
0
DICTIONARY
5
D
100
AcDbDictionary
0
DICTIONARY
5
1A
330
C
100
AcDbDictionary
0
DICTIONARY
5
17
100
AcDbDictionary
0
ENDSEC
0
EOF
