0
SECTION
2
HEADER
9
$INSUNITS
70
4
9
$ACADVER
1
AC1014
9
$HANDSEED
5
FFFF
0
ENDSEC
0
SECTION
2
TABLES
0
TABLE
2
VPORT
5
8
100
AcDbSymbolTable
0
ENDTAB
0
TABLE
2
LTYPE
5
5
100
AcDbSymbolTable
0
LTYPE
5
14
100
AcDbSymbolTableRecord
100
AcDbLinetypeTableRecord
2
BYBLOCK
70
0
0
LTYPE
5
15
100
AcDbSymbolTableRecord
100
AcDbLinetypeTableRecord
2
BYLAYER
70
0
0
ENDTAB
0
TABLE
2
LAYER
5
2
100
AcDbSymbolTable
70
2
0
LAYER
5
50
100
AcDbSymbolTableRecord
100
AcDbLayerTableRecord
2
0
70
0
6
CONTINUOUS
0
ENDTAB
0
TABLE
2
STYLE
5
3
100
AcDbSymbolTable
70
1
0
STYLE
5
11
100
AcDbSymbolTableRecord
100
AcDbTextStyleTableRecord
2
STANDARD
70
0
0
ENDTAB
0
TABLE
2
VIEW
5
6
100
AcDbSymbolTable
70
0
0
ENDTAB
0
TABLE
2
UCS
5
7
100
AcDbSymbolTable
70
0
0
ENDTAB
0
TABLE
2
APPID
5
9
100
AcDbSymbolTable
70
2
0
APPID
5
12
100
AcDbSymbolTableRecord
100
AcDbRegAppTableRecord
2
ACAD
70
0
0
ENDTAB
0
TABLE
2
DIMSTYLE
5
A
100
AcDbSymbolTable
70
1
0
ENDTAB
0
TABLE
2
BLOCK_RECORD
5
1
100
AcDbSymbolTable
70
1
0
BLOCK_RECORD
5
1F
100
AcDbSymbolTableRecord
100
AcDbBlockTableRecord
2
*MODEL_SPACE
0
BLOCK_RECORD
5
1B
100
AcDbSymbolTableRecord
100
AcDbBlockTableRecord
2
*PAPER_SPACE
0
ENDTAB
0
ENDSEC
0
SECTION
2
BLOCKS
0
BLOCK
5
20
100
AcDbEntity
100
AcDbBlockBegin
2
*MODEL_SPACE
0
ENDBLK
5
21
100
AcDbEntity
100
AcDbBlockEnd
0
BLOCK
5
1C
100
AcDbEntity
100
AcDbBlockBegin
2
*PAPER_SPACE
0
ENDBLK
5
1D
100
AcDbEntity
100
AcDbBlockEnd
0
ENDSEC
0
SECTION
2
ENTITIES
0
CIRCLE
5
100
100
AcDbEntity
8
0
100
AcDbCircle
10
-100.00000000000016
20
159.8700000000004
30
0
40
3.0000000000000071
210
0
220
-0
230
1
0
CIRCLE
5
101
100
AcDbEntity
8
0
100
AcDbCircle
10
-3.4964786111770184e-13
20
69.870000000000161
30
0
40
3.0000000000000004
210
4.8778504097747241e-47
220
1.2325951644078309e-32
230
1
0
CIRCLE
5
102
100
AcDbEntity
8
0
100
AcDbCircle
10
99.999999999999787
20
129.86999999999995
30
0
40
3.0000000000000071
210
0
220
-0
230
1
0
CIRCLE
5
103
100
AcDbEntity
8
0
100
AcDbCircle
10
-100.00000000000036
20
69.870000000000374
30
0
40
3.0000000000000071
210
0
220
-0
230
1
0
CIRCLE
5
104
100
AcDbEntity
8
0
100
AcDbCircle
10
-100.00000000000041
20
39.870000000000381
30
0
40
3.0000000000000071
210
0
220
-0
230
1
0
CIRCLE
5
105
100
AcDbEntity
8
0
100
AcDbCircle
10
-2.8421709430404007e-13
20
99.870000000000161
30
0
40
3.0000000000000004
210
4.8778504097747241e-47
220
1.2325951644078309e-32
230
1
0
CIRCLE
5
106
100
AcDbEntity
8
0
100
AcDbCircle
10
-100.00000000000021
20
129.87000000000037
30
0
40
3.0000000000000071
210
0
220
-0
230
1
0
CIRCLE
5
107
100
AcDbEntity
8
0
100
AcDbCircle
10
-1.5335556067671645e-13
20
159.87000000000018
30
0
40
3.0000000000000004
210
4.8778504097747241e-47
220
1.2325951644078309e-32
230
1
0
CIRCLE
5
108
100
AcDbEntity
8
0
100
AcDbCircle
10
-4.150786279313637e-13
20
39.870000000000161
30
0
40
3.0000000000000004
210
4.8778504097747241e-47
220
1.2325951644078309e-32
230
1
0
CIRCLE
5
109
100
AcDbEntity
8
0
100
AcDbCircle
10
-2.1878632749037826e-13
20
129.87000000000018
30
0
40
3.0000000000000004
210
4.8778504097747241e-47
220
1.2325951644078309e-32
230
1
0
CIRCLE
5
110
100
AcDbEntity
8
0
100
AcDbCircle
10
99.999999999999588
20
39.869999999999948
30
0
40
3.0000000000000071
210
0
220
-0
230
1
0
CIRCLE
5
111
100
AcDbEntity
8
0
100
AcDbCircle
10
99.999999999999645
20
69.869999999999948
30
0
40
3.0000000000000071
210
0
220
-0
230
1
0
CIRCLE
5
112
100
AcDbEntity
8
0
100
AcDbCircle
10
99.999999999999716
20
99.869999999999948
30
0
40
3.0000000000000071
210
0
220
-0
230
1
0
CIRCLE
5
113
100
AcDbEntity
8
0
100
AcDbCircle
10
-100.00000000000028
20
99.870000000000374
30
0
40
3.0000000000000071
210
0
220
-0
230
1
0
CIRCLE
5
114
100
AcDbEntity
8
0
100
AcDbCircle
10
99.999999999999844
20
159.86999999999995
30
0
40
3.0000000000000071
210
0
220
-0
230
1
0
ARC
5
115
100
AcDbEntity
8
0
100
AcDbCircle
10
31.991320343558826
20
1.8613203435595715
30
0
40
3.0000000000000031
210
0
220
0
230
1
100
AcDbArc
50
134.99999999994549
51
314.99999999994549
0
LINE
5
116
100
AcDbEntity
8
0
100
AcDbLine
10
29.870000000001198
20
3.982640687121235
30
0
11
29.87000000000123
21
7.7573593128787088
31
0
0
ARC
5
117
100
AcDbEntity
8
0
100
AcDbCircle
10
31.991320343558844
20
9.87867965644039
30
0
40
3.0000000000000031
210
0
220
-0
230
1
100
AcDbArc
50
44.999999999723407
51
225.00000000005494
0
LINE
5
118
100
AcDbEntity
8
0
100
AcDbLine
10
34.112640687128732
20
11.999999999989797
30
0
11
85.887359312868199
21
11.999999999999115
31
0
0
ARC
5
119
100
AcDbEntity
8
0
100
AcDbCircle
10
88.008679656428583
20
9.8786796564402088
30
0
40
2.9999999999999893
210
4.3578819960428742e-33
220
-4.3578819960623726e-33
230
1
100
AcDbArc
50
-44.999999999583579
51
135.00000000001998
0
LINE
5
120
100
AcDbEntity
8
0
100
AcDbLine
10
90.130000000003633
20
7.7573593128959946
30
-1.8488927466117399e-32
11
90.130000000007598
21
3.9826406871106101
31
0
0
ARC
5
121
100
AcDbEntity
8
0
100
AcDbCircle
10
88.008679656439512
20
1.8613203435594052
30
0
40
2.9999999999999849
210
0
220
0
230
1
100
AcDbArc
50
-134.99999999968364
51
44.999999999772029
0
LINE
5
122
100
AcDbEntity
8
0
100
AcDbLine
10
85.88735931289159
20
-0.26000000001194429
30
0
11
34.112640687116453
21
-0.26000000000209211
31
0
0
LWPOLYLINE
5
123
100
AcDbEntity
8
0
100
AcDbPolyline
90
8
70
1
43
0.0
10
-90.130000000050373
20
7.7573593129071039
42
-0.99999999999999989
10
-85.887359312929718
20
12.000000000025013
10
-34.112640687181241
20
12.000000000007994
42
-0.99999999999999989
10
-29.870000000059164
20
7.7573593128915075
10
-29.870000000072828
20
3.9826406871385487
42
-0.99999999999999989
10
-34.11264068717216
20
-0.26000000000068552
10
-85.887359312940646
20
-0.25999999997159101
42
-0.99999999999999989
10
-90.130000000065564
20
3.9826406871420317
0
LWPOLYLINE
5
124
100
AcDbEntity
8
0
100
AcDbPolyline
90
6
70
1
43
0.0
10
50.112255677826091
20
247.86333323514691
42
-0.20335596200820455
10
61.535719088466045
20
245.25786678792838
10
84.808019576966728
20
228.45009421291127
42
-0.72762538254762799
10
80.41684042316858
20
214.8700000000143
10
-49.817792476316221
20
214.87000000001356
42
-0.91519883328800145
10
-51.13834502778856
20
229.75282743643925
0
ARC
5
125
100
AcDbEntity
8
0
100
AcDbCircle
10
-31.991320343613438
20
189.86132034356154
30
-8.5528470722950261e-48
40
2.9999999999999911
210
4.3578819960467921e-33
220
4.3578819960584917e-33
230
1
100
AcDbArc
50
-134.9999999996964
51
45.000000000303174
0
LINE
5
126
100
AcDbEntity
8
0
100
AcDbLine
10
-34.112640687161843
20
187.73999999999066
30
1.8488927466117481e-32
11
-85.887359312929533
21
187.73999999997568
31
0
0
ARC
5
127
100
AcDbEntity
8
0
100
AcDbCircle
10
-88.008679656489875
20
189.86132034353471
30
0
40
3.0000000000000067
210
0
220
0
230
1
100
AcDbArc
50
135.00000000035121
51
315.00000000001762
0
LINE
5
128
100
AcDbEntity
8
0
100
AcDbLine
10
-90.130000000062523
20
191.98264068708136
30
0
11
-90.130000000065081
21
195.75735931285868
31
0
0
ARC
5
129
100
AcDbEntity
8
0
100
AcDbCircle
10
-88.008679656502679
20
197.87867965641556
30
-5.1317082433770156e-48
40
2.9999999999999938
210
4.3578819960469166e-33
220
-4.3578819960583186e-33
230
1
100
AcDbArc
50
45.000000000289795
51
224.99999999992534
0
LINE
5
130
100
AcDbEntity
8
0
100
AcDbLine
10
-85.887359312953762
20
199.99999999998593
30
1.176937816571975e-43
11
-34.112640687176558
21
200.00000000000097
31
0
0
ARC
5
131
100
AcDbEntity
8
0
100
AcDbCircle
10
-31.991320343615786
20
197.87867965644244
30
0
40
3.0000000000000195
210
-0
220
0
230
1
100
AcDbArc
50
-45.000000000049319
51
135.00000000003038
0
LINE
5
132
100
AcDbEntity
8
0
100
AcDbLine
10
-29.87000000005796
20
195.75735931288096
30
0
11
-29.87000000006503
21
191.9826406871324
31
-1.8488927466117494e-32
0
LWPOLYLINE
5
133
100
AcDbEntity
8
0
100
AcDbPolyline
90
8
70
1
43
0.0
10
29.870000000003319
20
195.75735931288946
42
-0.99999999999999989
10
34.112640687119523
20
200.0000000000118
10
85.887359312872178
20
199.9999999999919
42
-0.99999999999999989
10
90.130000000007797
20
195.75735931288904
10
90.129999999989465
20
191.9826406871185
42
-0.99999999999999989
10
85.887359312868554
20
187.74000000000086
10
34.112640687119921
20
187.74000000001178
42
-0.99999999999999989
10
29.87000000000068
20
191.98264068713104
0
LINE
5
134
100
AcDbEntity
8
0
100
AcDbLine
10
108.46153846161555
20
-50.129999999985344
30
0
11
150.00000000000068
21
-50.129999999985806
31
0
0
LINE
5
135
100
AcDbEntity
8
0
100
AcDbLine
10
150.00000000000068
20
-50.129999999985806
30
0
11
150.00000000000125
21
199.87000000001328
31
0
0
LINE
5
136
100
AcDbEntity
8
0
100
AcDbLine
10
150.00000000000125
20
199.87000000001328
30
0
11
65.159038698353285
21
261.14402760676171
31
0
0
ARC
5
137
100
AcDbEntity
8
0
100
AcDbCircle
10
56.37668039069186
20
248.9838391807628
30
0
40
14.999999999998249
210
-4.9961964840586922e-33
220
3.6083641273738962e-33
230
1
100
AcDbArc
50
54.162347045735501
51
100.14114532055881
0
LINE
5
138
100
AcDbEntity
8
0
100
AcDbLine
10
53.735575287714788
20
263.74949405398047
30
-6.6475339391225599e-32
11
-150.00000000008004
21
227.30769230776133
31
0
0
LINE
5
139
100
AcDbEntity
8
0
100
AcDbLine
10
-150.00000000008004
20
227.30769230776133
30
0
11
-150.00000000007992
21
200.00000000006165
31
0
0
LINE
5
140
100
AcDbEntity
8
0
100
AcDbLine
10
-150.00000000007992
20
200.00000000006165
30
0
11
-142.11264068708803
21
200.00000000000182
31
0
0
ARC
5
141
100
AcDbEntity
8
0
100
AcDbCircle
10
-139.99132034353789
20
197.87867965643267
30
7.3554484821737224e-47
40
3.0000000000000195
210
4.3578819960331581e-33
220
-4.3578819960720387e-33
230
1
100
AcDbArc
50
-45.000000000613717
51
134.99999999974321
0
LINE
5
142
100
AcDbEntity
8
0
100
AcDbLine
10
-137.87000000000094
20
195.75735931285027
30
-1.8488927466117399e-32
11
-137.8700000000016
21
137.31597402044432
31
0
0
ARC
5
143
100
AcDbEntity
8
0
100
AcDbCircle
10
-139.99132034356816
20
135.19465367689162
30
-1.8132035793265455e-46
40
2.9999999999999938
210
8.7157639921052379e-33
220
-2.8478928067445081e-44
230
1
100
AcDbArc
50
-135.00000000038881
51
44.999999999812694
0
LINE
5
144
100
AcDbEntity
8
0
100
AcDbLine
10
-142.1126406871422
20
133.07333333334637
30
1.848892746618222e-32
11
-150.00000000000023
21
133.07333333334566
31
0
0
LINE
5
145
100
AcDbEntity
8
0
100
AcDbLine
10
-150.00000000000023
20
133.07333333334566
30
0
11
-150.00000000000034
21
66.666666666667496
31
0
0
LINE
5
146
100
AcDbEntity
8
0
100
AcDbLine
10
-150.00000000000034
20
66.666666666667496
30
0
11
-142.11264068714513
21
66.6666666666586
31
0
0
ARC
5
147
100
AcDbEntity
8
0
100
AcDbCircle
10
-139.99132034355958
20
64.545346323108589
30
-1.8816263559049057e-47
40
2.9999999999999938
210
-4.3578819960792936e-33
220
-4.3578819960259498e-33
230
1
100
AcDbArc
50
-44.999999999654925
51
135.00000000047999
0
LINE
5
148
100
AcDbEntity
8
0
100
AcDbLine
10
-137.86999999998716
20
62.424025979561719
30
2.2445794531900719e-43
11
-137.87000000000239
21
3.9826406871677733
31
0
0
ARC
5
149
100
AcDbEntity
8
0
100
AcDbCircle
10
-139.99132034353707
20
1.8613203435831374
30
0
40
2.9999999999999858
210
0
220
0
230
1
100
AcDbArc
50
-134.99999999935287
51
45.000000000674682
0
LINE
5
150
100
AcDbEntity
8
0
100
AcDbLine
10
-142.11264068707274
20
-0.26000000000045265
30
0
11
-150.00000000008021
21
-0.2600000000594177
31
0
0
LINE
5
151
100
AcDbEntity
8
0
100
AcDbLine
10
-150.00000000008021
20
-0.2600000000594177
30
0
11
-150.00000000000196
21
-50.129999999974224
31
0
0
LINE
5
152
100
AcDbEntity
8
0
100
AcDbLine
10
-150.00000000000196
20
-50.129999999974224
30
0
11
-135.0000000000029
21
-50.129999999974366
31
0
0
LINE
5
153
100
AcDbEntity
8
0
100
AcDbLine
10
-135.0000000000029
20
-50.129999999974366
30
0
11
53.731023183587716
21
-16.25520096711471
31
0
0
ARC
5
154
100
AcDbEntity
8
0
100
AcDbCircle
10
56.380984125452656
20
-31.019269071795552
30
6.0725214213294685e-47
40
14.999999999768798
210
-1.5165099127581642e-33
220
-2.7219408690522193e-34
230
1
100
AcDbArc
50
54.162347045793048
51
100.17551084304
0
LINE
5
155
100
AcDbEntity
8
0
100
AcDbLine
10
65.163342432967525
20
-18.859080645973837
30
1.6628464815902369e-32
11
108.46153846161555
21
-50.129999999985344
31
0
0
ENDSEC
0
SECTION
2
OBJECTS
0
DICTIONARY
5
C
100
AcDbDictionary
3
ACAD_GROUP
350
D
3
ACAD_MLINESTYLE
350
17
0
DICTIONARY
5
D
100
AcDbDictionary
0
DICTIONARY
5
1A
330
C
100
AcDbDictionary
0
DICTIONARY
5
17
100
AcDbDictionary
0
ENDSEC
0
EOF
