0
SECTION
2
HEADER
9
$INSUNITS
70
4
9
$ACADVER
1
AC1014
9
$HANDSEED
5
FFFF
0
ENDSEC
0
SECTION
2
TABLES
0
TABLE
2
VPORT
5
8
100
AcDbSymbolTable
0
ENDTAB
0
TABLE
2
LTYPE
5
5
100
AcDbSymbolTable
0
LTYPE
5
14
100
AcDbSymbolTableRecord
100
AcDbLinetypeTableRecord
2
BYBLOCK
70
0
0
LTYPE
5
15
100
AcDbSymbolTableRecord
100
AcDbLinetypeTableRecord
2
BYLAYER
70
0
0
ENDTAB
0
TABLE
2
LAYER
5
2
100
AcDbSymbolTable
70
2
0
LAYER
5
50
100
AcDbSymbolTableRecord
100
AcDbLayerTableRecord
2
0
70
0
6
CONTINUOUS
0
ENDTAB
0
TABLE
2
STYLE
5
3
100
AcDbSymbolTable
70
1
0
STYLE
5
11
100
AcDbSymbolTableRecord
100
AcDbTextStyleTableRecord
2
STANDARD
70
0
0
ENDTAB
0
TABLE
2
VIEW
5
6
100
AcDbSymbolTable
70
0
0
ENDTAB
0
TABLE
2
UCS
5
7
100
AcDbSymbolTable
70
0
0
ENDTAB
0
TABLE
2
APPID
5
9
100
AcDbSymbolTable
70
2
0
APPID
5
12
100
AcDbSymbolTableRecord
100
AcDbRegAppTableRecord
2
ACAD
70
0
0
ENDTAB
0
TABLE
2
DIMSTYLE
5
A
100
AcDbSymbolTable
70
1
0
ENDTAB
0
TABLE
2
BLOCK_RECORD
5
1
100
AcDbSymbolTable
70
1
0
BLOCK_RECORD
5
1F
100
AcDbSymbolTableRecord
100
AcDbBlockTableRecord
2
*MODEL_SPACE
0
BLOCK_RECORD
5
1B
100
AcDbSymbolTableRecord
100
AcDbBlockTableRecord
2
*PAPER_SPACE
0
ENDTAB
0
ENDSEC
0
SECTION
2
BLOCKS
0
BLOCK
5
20
100
AcDbEntity
100
AcDbBlockBegin
2
*MODEL_SPACE
0
ENDBLK
5
21
100
AcDbEntity
100
AcDbBlockEnd
0
BLOCK
5
1C
100
AcDbEntity
100
AcDbBlockBegin
2
*PAPER_SPACE
0
ENDBLK
5
1D
100
AcDbEntity
100
AcDbBlockEnd
0
ENDSEC
0
SECTION
2
ENTITIES
0
CIRCLE
5
100
100
AcDbEntity
8
0
100
AcDbCircle
10
-99.999999999999702
20
99.869999999999834
30
0
40
3.0000000000000071
210
2.1895288505075267e-47
220
4.7754183883114327e-62
230
1
0
CIRCLE
5
101
100
AcDbEntity
8
0
100
AcDbCircle
10
100.00000000000037
20
69.87000000000026
30
0
40
3.0000000000000071
210
2.1895288505075267e-47
220
4.7754183883114327e-62
230
1
0
CIRCLE
5
102
100
AcDbEntity
8
0
100
AcDbCircle
10
-99.999999999999574
20
39.869999999999834
30
0
40
3.0000000000000071
210
2.1895288505075267e-47
220
4.7754183883114327e-62
230
1
0
CIRCLE
5
103
100
AcDbEntity
8
0
100
AcDbCircle
10
1.625372532591823e-13
20
159.87000000000006
30
0
40
3.0000000000000004
210
2.6883215592671979e-47
220
-1.2325951644078309e-32
230
1
0
CIRCLE
5
104
100
AcDbEntity
8
0
100
AcDbCircle
10
100.00000000000017
20
159.87000000000029
30
0
40
3.0000000000000071
210
2.1895288505075267e-47
220
4.7754183883114327e-62
230
1
0
CIRCLE
5
105
100
AcDbEntity
8
0
100
AcDbCircle
10
4.2426032051382956e-13
20
39.870000000000054
30
0
40
3.0000000000000004
210
2.6883215592671979e-47
220
-1.2325951644078309e-32
230
1
0
CIRCLE
5
106
100
AcDbEntity
8
0
100
AcDbCircle
10
-99.999999999999773
20
129.86999999999983
30
0
40
3.0000000000000071
210
2.1895288505075267e-47
220
4.7754183883114327e-62
230
1
0
CIRCLE
5
107
100
AcDbEntity
8
0
100
AcDbCircle
10
100.0000000000003
20
99.87000000000026
30
0
40
3.0000000000000071
210
2.1895288505075267e-47
220
4.7754183883114327e-62
230
1
0
CIRCLE
5
108
100
AcDbEntity
8
0
100
AcDbCircle
10
100.00000000000043
20
39.870000000000275
30
0
40
3.0000000000000071
210
2.1895288505075267e-47
220
4.7754183883114327e-62
230
1
0
CIRCLE
5
109
100
AcDbEntity
8
0
100
AcDbCircle
10
2.9339878688650593e-13
20
99.870000000000061
30
0
40
3.0000000000000004
210
2.6883215592671979e-47
220
-1.2325951644078309e-32
230
1
0
CIRCLE
5
110
100
AcDbEntity
8
0
100
AcDbCircle
10
100.00000000000023
20
129.87000000000026
30
0
40
3.0000000000000071
210
2.1895288505075267e-47
220
4.7754183883114327e-62
230
1
0
CIRCLE
5
111
100
AcDbEntity
8
0
100
AcDbCircle
10
-99.999999999999829
20
159.86999999999983
30
0
40
3.0000000000000071
210
2.1895288505075267e-47
220
4.7754183883114327e-62
230
1
0
CIRCLE
5
112
100
AcDbEntity
8
0
100
AcDbCircle
10
3.5882955370016774e-13
20
69.870000000000061
30
0
40
3.0000000000000004
210
2.6883215592671979e-47
220
-1.2325951644078309e-32
230
1
0
CIRCLE
5
113
100
AcDbEntity
8
0
100
AcDbCircle
10
-99.999999999999631
20
69.869999999999834
30
0
40
3.0000000000000071
210
2.1895288505075267e-47
220
4.7754183883114327e-62
230
1
0
CIRCLE
5
114
100
AcDbEntity
8
0
100
AcDbCircle
10
2.2796802007284411e-13
20
129.87000000000006
30
0
40
3.0000000000000004
210
2.6883215592671979e-47
220
-1.2325951644078309e-32
230
1
0
ARC
5
115
100
AcDbEntity
8
0
100
AcDbCircle
10
-31.991320343561426
20
197.87867965645057
30
0
40
2.9999999999999942
210
-0
220
0
230
1
100
AcDbArc
50
-44.999999999970434
51
134.99999999995893
0
LINE
5
116
100
AcDbEntity
8
0
100
AcDbLine
10
-29.870000000000687
20
195.75735931289202
30
0
11
-29.87000000000068
21
191.98264068713101
31
0
0
ARC
5
117
100
AcDbEntity
8
0
100
AcDbCircle
10
-31.991320343560293
20
189.86132034357132
30
0
40
3.0000000000000004
210
0
220
0
230
1
100
AcDbArc
50
-134.99999999996953
51
45.000000000001002
0
LINE
5
118
100
AcDbEntity
8
0
100
AcDbLine
10
-34.112640687118805
20
187.74000000001055
30
0
11
-85.88735931286854
21
187.7400000000008
31
0
0
ARC
5
119
100
AcDbEntity
8
0
100
AcDbCircle
10
-88.008679656428995
20
189.86132034355961
30
0
40
2.9999999999999938
210
0
220
0
230
1
100
AcDbArc
50
135.00000000041379
51
315.00000000002223
0
LINE
5
120
100
AcDbEntity
8
0
100
AcDbLine
10
-90.130000000003946
20
191.98264068710392
30
0
11
-90.130000000007797
21
195.75735931288901
31
0
0
ARC
5
121
100
AcDbEntity
8
0
100
AcDbCircle
10
-88.008679656439952
20
197.8786796564404
30
0
40
2.9999999999999813
210
4.3578819960286463e-33
220
4.357881996076623e-33
230
1
100
AcDbArc
50
45.000000000315694
51
224.99999999977774
0
LINE
5
122
100
AcDbEntity
8
0
100
AcDbLine
10
-85.887359312892016
20
200.00000000001171
30
-1.8488927466117399e-32
11
-34.112640687119523
21
200.00000000001171
31
0
0
ARC
5
123
100
AcDbEntity
8
0
100
AcDbCircle
10
-31.991320343558819
20
1.8613203435594627
30
0
40
3.0000000000000031
210
-4.357881996018205e-33
220
-4.3578819960870397e-33
230
1
100
AcDbArc
50
-134.99999999954753
51
45.000000000054534
0
LINE
5
124
100
AcDbEntity
8
0
100
AcDbLine
10
-34.11264068710171
20
-0.2600000000169353
30
-1.8488927466117481e-32
11
-85.887359312891576
21
-0.26000000001204804
31
0
0
ARC
5
125
100
AcDbEntity
8
0
100
AcDbCircle
10
-88.008679656439483
20
1.8613203435593029
30
0
40
2.9999999999999889
210
0
220
0
230
1
100
AcDbArc
50
135.00000000056059
51
314.99999999968344
0
LINE
5
126
100
AcDbEntity
8
0
100
AcDbLine
10
-90.130000000019876
20
3.9826406870981854
30
0
11
-90.130000000003605
21
7.7573593128958862
31
0
0
ARC
5
127
100
AcDbEntity
8
0
100
AcDbCircle
10
-88.008679656428569
20
9.8786796564401058
30
0
40
2.9999999999999929
210
-1.9507333602490495e-44
220
8.7157639921052447e-33
230
1
100
AcDbArc
50
45.000000000128033
51
224.99999999958385
0
LINE
5
128
100
AcDbEntity
8
0
100
AcDbLine
10
-85.88735931287367
20
12.000000000004485
30
-1.848892746611736e-32
11
-34.112640687128703
21
11.999999999989679
31
0
0
ARC
5
129
100
AcDbEntity
8
0
100
AcDbCircle
10
-31.991320343558836
20
9.8786796564402835
30
0
40
3.0000000000000027
210
-4.3578819960484595e-33
220
4.3578819960567879e-33
230
1
100
AcDbArc
50
-45.000000000054754
51
135.00000000027646
0
LINE
5
130
100
AcDbEntity
8
0
100
AcDbLine
10
-29.87000000000122
20
7.757359312878612
30
1.8488927466117481e-32
11
-29.870000000001191
21
3.9826406871211284
31
1.8488927466117481e-32
0
LWPOLYLINE
5
131
100
AcDbEntity
8
0
100
AcDbPolyline
90
8
70
1
43
0.0
10
85.887359312917141
20
12.000000000012314
42
-0.99999999999999989
10
90.13000000006295
20
7.7573593129195908
10
90.130000000051695
20
3.9826406871558149
42
-0.99999999999999989
10
85.887359312954544
20
-0.25999999998558843
10
34.112640687186612
20
-0.25999999998635392
42
-0.99999999999999989
10
29.870000000058397
20
3.9826406871240021
10
29.870000000060987
20
7.7573593128895872
42
-0.99999999999999989
10
34.112640687179443
20
12.000000000009702
0
LWPOLYLINE
5
132
100
AcDbEntity
8
0
100
AcDbPolyline
90
6
70
1
43
0.0
10
-61.535719088466045
20
245.25786678792829
42
-0.2033559620082033
10
-50.11225567782607
20
247.86333323514683
10
51.138345027788574
20
229.75282743643916
42
-0.915198833287998
10
49.817792476316249
20
214.87000000001348
10
-80.416840423168594
20
214.87000000001427
42
-0.72762538254762232
10
-84.808019576966757
20
228.45009421291121
0
ARC
5
133
100
AcDbEntity
8
0
100
AcDbCircle
10
31.991320343613459
20
189.86132034356146
30
0
40
2.9999999999999973
210
4.3578819960467715e-33
220
-4.3578819960584896e-33
230
1
100
AcDbArc
50
134.99999999992343
51
314.99999999969657
0
LINE
5
134
100
AcDbEntity
8
0
100
AcDbLine
10
29.870000000056656
20
191.98264068712393
30
1.8488927466117481e-32
11
29.870000000057971
21
195.75735931288091
31
0
0
ARC
5
135
100
AcDbEntity
8
0
100
AcDbCircle
10
31.991320343615786
20
197.87867965644239
30
0
40
3.0000000000000036
210
0
220
-0
230
1
100
AcDbArc
50
44.999999999980567
51
225.00000000004945
0
LINE
5
136
100
AcDbEntity
8
0
100
AcDbLine
10
34.112640687176146
20
200.00000000000131
30
0
11
85.887359312953762
21
199.99999999998582
31
0
0
ARC
5
137
100
AcDbEntity
8
0
100
AcDbCircle
10
88.008679656502693
20
197.8786796564155
30
0
40
2.9999999999999938
210
4.3578819960469221e-33
220
4.357881996058324e-33
230
1
100
AcDbArc
50
-44.999999999925137
51
134.99999999971118
0
LINE
5
138
100
AcDbEntity
8
0
100
AcDbLine
10
90.13000000006511
20
195.75735931285863
30
3.6239293633770029e-47
11
90.130000000062523
21
191.98264068708119
31
0
0
ARC
5
139
100
AcDbEntity
8
0
100
AcDbCircle
10
88.008679656489903
20
189.8613203435346
30
0
40
3.0000000000000067
210
0
220
0
230
1
100
AcDbArc
50
-135.00000000001825
51
44.999999999648409
0
LINE
5
140
100
AcDbEntity
8
0
100
AcDbLine
10
85.887359312929576
20
187.73999999997562
30
0
11
34.11264068716185
21
187.7399999999906
31
-1.8488927466117481e-32
0
LWPOLYLINE
5
141
100
AcDbEntity
8
0
100
AcDbPolyline
90
22
70
1
43
0.0
10
-108.46153846161553
20
-50.129999999985451
10
-150.00000000000063
20
-50.129999999985912
10
-150.00000000000119
20
199.87000000001314
10
-65.159038698353257
20
261.1440276067616
42
-0.20335596200822928
10
-53.735575287714781
20
263.74949405398036
10
150.00000000008009
20
227.30769230776127
10
150.00000000007998
20
200.00000000006156
10
142.11264068708806
20
200.00000000000168
42
0.99999999999999989
10
137.87000000000097
20
195.75735931285024
10
137.87000000000165
20
137.31597402044423
42
0.99999999999999989
10
142.11264068714223
20
133.07333333334628
10
150.00000000000023
20
133.07333333334554
10
150.00000000000037
20
66.666666666667382
10
142.11264068710625
20
66.666666666681095
42
0.99999999999999989
10
137.87000000000239
20
62.424025979562728
10
137.87000000000205
20
3.982640687167267
42
0.99999999999999989
10
142.11264068707405
20
-0.25999999999928691
10
150.00000000008023
20
-0.26000000005952373
10
150.00000000000196
20
-50.129999999974316
10
135.00000000000296
20
-50.129999999974473
10
-53.731023183587695
20
-16.255200967114813
42
0.20351211554151497
10
-65.163342432967525
20
-18.859080645973943
0
ENDSEC
0
SECTION
2
OBJECTS
0
DICTIONARY
5
C
100
AcDbDictionary
3
ACAD_GROUP
350
D
3
ACAD_MLINESTYLE
350
17
0
DICTIONARY
5
D
100
AcDbDictionary
0
DICTIONARY
5
1A
330
C
100
AcDbDictionary
0
DICTIONARY
5
17
100
AcDbDictionary
0
ENDSEC
0
EOF
