0
SECTION
2
HEADER
9
$INSUNITS
70
4
9
$ACADVER
1
AC1014
9
$HANDSEED
5
FFFF
0
ENDSEC
0
SECTION
2
TABLES
0
TABLE
2
VPORT
5
8
100
AcDbSymbolTable
0
ENDTAB
0
TABLE
2
LTYPE
5
5
100
AcDbSymbolTable
0
LTYPE
5
14
100
AcDbSymbolTableRecord
100
AcDbLinetypeTableRecord
2
BYBLOCK
70
0
0
LTYPE
5
15
100
AcDbSymbolTableRecord
100
AcDbLinetypeTableRecord
2
BYLAYER
70
0
0
ENDTAB
0
TABLE
2
LAYER
5
2
100
AcDbSymbolTable
70
2
0
LAYER
5
50
100
AcDbSymbolTableRecord
100
AcDbLayerTableRecord
2
0
70
0
6
CONTINUOUS
0
ENDTAB
0
TABLE
2
STYLE
5
3
100
AcDbSymbolTable
70
1
0
STYLE
5
11
100
AcDbSymbolTableRecord
100
AcDbTextStyleTableRecord
2
STANDARD
70
0
0
ENDTAB
0
TABLE
2
VIEW
5
6
100
AcDbSymbolTable
70
0
0
ENDTAB
0
TABLE
2
UCS
5
7
100
AcDbSymbolTable
70
0
0
ENDTAB
0
TABLE
2
APPID
5
9
100
AcDbSymbolTable
70
2
0
APPID
5
12
100
AcDbSymbolTableRecord
100
AcDbRegAppTableRecord
2
ACAD
70
0
0
ENDTAB
0
TABLE
2
DIMSTYLE
5
A
100
AcDbSymbolTable
70
1
0
ENDTAB
0
TABLE
2
BLOCK_RECORD
5
1
100
AcDbSymbolTable
70
1
0
BLOCK_RECORD
5
1F
100
AcDbSymbolTableRecord
100
AcDbBlockTableRecord
2
*MODEL_SPACE
0
BLOCK_RECORD
5
1B
100
AcDbSymbolTableRecord
100
AcDbBlockTableRecord
2
*PAPER_SPACE
0
ENDTAB
0
ENDSEC
0
SECTION
2
BLOCKS
0
BLOCK
5
20
100
AcDbEntity
100
AcDbBlockBegin
2
*MODEL_SPACE
0
ENDBLK
5
21
100
AcDbEntity
100
AcDbBlockEnd
0
BLOCK
5
1C
100
AcDbEntity
100
AcDbBlockBegin
2
*PAPER_SPACE
0
ENDBLK
5
1D
100
AcDbEntity
100
AcDbBlockEnd
0
ENDSEC
0
SECTION
2
ENTITIES
0
LINE
5
100
100
AcDbEntity
8
0
100
AcDbLine
10
7.5000000000000373
20
149.99999999999994
30
0
11
7.5000000000000355
21
101.99999999999994
31
0
0
ARC
5
101
100
AcDbEntity
8
0
100
AcDbCircle
10
3.5527136788005009e-14
20
101.99999999999994
30
0
40
7.5
210
0
220
0
230
1
100
AcDbArc
50
-180
51
0
0
LINE
5
102
100
AcDbEntity
8
0
100
AcDbLine
10
-7.4999999999999645
20
101.99999999999994
30
0
11
-7.4999999999999645
21
149.99999999999994
31
0
0
LINE
5
103
100
AcDbEntity
8
0
100
AcDbLine
10
-7.4999999999999645
20
149.99999999999994
30
0
11
-187.99999999999997
21
149.99999999999994
31
0
0
LINE
5
104
100
AcDbEntity
8
0
100
AcDbLine
10
-187.99999999999997
20
149.99999999999994
30
0
11
-187.99999999999997
21
94.112640687119281
31
0
0
ARC
5
105
100
AcDbEntity
8
0
100
AcDbCircle
10
-190.12132034355957
20
91.991320343559607
30
1.5395124730131047e-46
40
3.000000000000032
210
-4.3578819960526251e-33
220
-4.3578819960526231e-33
230
1
100
AcDbArc
50
-135.00000000000037
51
45.000000000000959
0
LINE
5
106
100
AcDbEntity
8
0
100
AcDbLine
10
-192.24264068711926
20
89.869999999999948
30
-1.8488927466117508e-32
11
-199.99999999999997
21
89.869999999999962
31
0
0
LINE
5
107
100
AcDbEntity
8
0
100
AcDbLine
10
-199.99999999999997
20
89.869999999999962
30
0
11
-199.99999999999997
21
30.129999999999928
31
0
0
LINE
5
108
100
AcDbEntity
8
0
100
AcDbLine
10
-199.99999999999997
20
30.129999999999928
30
0
11
-192.24264068711929
21
30.129999999999932
31
0
0
ARC
5
109
100
AcDbEntity
8
0
100
AcDbCircle
10
-190.1213203435596
20
28.0086796564403
30
0
40
3.000000000000016
210
4.3578819960526155e-33
220
-4.3578819960526073e-33
230
1
100
AcDbArc
50
-44.999999999999652
51
135.00000000000077
0
LINE
5
110
100
AcDbEntity
8
0
100
AcDbLine
10
-187.99999999999994
20
25.887359312880665
30
-1.8488927466117508e-32
11
-187.99999999999997
21
-25.887359312880754
31
0
0
ARC
5
111
100
AcDbEntity
8
0
100
AcDbCircle
10
-190.1213203435596
20
-28.008679656440385
30
0
40
3.0000000000000036
210
-4.3578819960526463e-33
220
-4.3578819960526107e-33
230
1
100
AcDbArc
50
-135.00000000000011
51
45
0
LINE
5
112
100
AcDbEntity
8
0
100
AcDbLine
10
-192.24264068711926
20
-30.130000000000038
30
-1.8488927466117508e-32
11
-199.99999999999997
21
-30.130000000000031
31
0
0
LINE
5
113
100
AcDbEntity
8
0
100
AcDbLine
10
-199.99999999999997
20
-30.130000000000031
30
0
11
-199.99999999999997
21
-89.870000000000061
31
0
0
LINE
5
114
100
AcDbEntity
8
0
100
AcDbLine
10
-199.99999999999997
20
-89.870000000000061
30
0
11
-192.24264068711926
21
-89.870000000000061
31
0
0
ARC
5
115
100
AcDbEntity
8
0
100
AcDbCircle
10
-190.1213203435596
20
-91.991320343559707
30
-3.8570500681358382e-48
40
2.9999999999999942
210
-8.7157639921052954e-33
220
6.2948954452091392e-47
230
1
100
AcDbArc
50
-45.000000000000199
51
135.0000000000002
0
LINE
5
116
100
AcDbEntity
8
0
100
AcDbLine
10
-187.99999999999997
20
-94.112640687119352
30
1.8488927466117659e-32
11
-187.99999999999997
21
-138.00000000000006
31
0
0
LINE
5
117
100
AcDbEntity
8
0
100
AcDbLine
10
-187.99999999999997
20
-138.00000000000006
30
0
11
-70.909307353785948
21
-138.00000000000006
31
0
0
ARC
5
118
100
AcDbEntity
8
0
100
AcDbCircle
10
-68.787987010226288
20
-140.12132034355969
30
-1.7105694144590052e-48
40
3.0000000000000124
210
4.357881996052634e-33
220
-4.3578819960525971e-33
230
1
100
AcDbArc
50
-45
51
135.00000000000037
0
LINE
5
119
100
AcDbEntity
8
0
100
AcDbLine
10
-66.666666666666629
20
-142.24264068711935
30
-1.8488927466117508e-32
11
-66.666666666666643
21
-150.00000000000006
31
0
0
LINE
5
120
100
AcDbEntity
8
0
100
AcDbLine
10
-66.666666666666643
20
-150.00000000000006
30
0
11
66.666666666666714
21
-150.00000000000006
31
0
0
LINE
5
121
100
AcDbEntity
8
0
100
AcDbLine
10
66.666666666666714
20
-150.00000000000006
30
0
11
66.6666666666667
21
-142.24264068711935
31
0
0
ARC
5
122
100
AcDbEntity
8
0
100
AcDbCircle
10
68.78798701022636
20
-140.12132034355969
30
-1.7105694144590052e-48
40
2.9999999999999938
210
-4.35788199605266e-33
220
-4.3578819960526244e-33
230
1
100
AcDbArc
50
44.999999999999623
51
225
0
LINE
5
123
100
AcDbEntity
8
0
100
AcDbLine
10
70.909307353786019
20
-138.00000000000006
30
1.8488927466117508e-32
11
188.00000000000006
21
-138.00000000000006
31
0
0
LINE
5
124
100
AcDbEntity
8
0
100
AcDbLine
10
188.00000000000006
20
-138.00000000000006
30
0
11
188.00000000000006
21
-94.112640687119367
31
0
0
ARC
5
125
100
AcDbEntity
8
0
100
AcDbCircle
10
190.12132034355969
20
-91.991320343559707
30
0
40
2.9999999999999938
210
0
220
-0
230
1
100
AcDbArc
50
45.000000000000959
51
225.0000000000004
0
LINE
5
126
100
AcDbEntity
8
0
100
AcDbLine
10
192.24264068711929
20
-89.870000000000033
30
0
11
200.00000000000003
21
-89.870000000000061
31
0
0
LINE
5
127
100
AcDbEntity
8
0
100
AcDbLine
10
200.00000000000003
20
-89.870000000000061
30
0
11
200.00000000000003
21
-30.130000000000035
31
0
0
LINE
5
128
100
AcDbEntity
8
0
100
AcDbLine
10
200.00000000000003
20
-30.130000000000035
30
0
11
192.24264068711932
21
-30.130000000000031
31
0
0
ARC
5
129
100
AcDbEntity
8
0
100
AcDbCircle
10
190.12132034355969
20
-28.008679656440385
30
0
40
2.9999999999999973
210
0
220
0
230
1
100
AcDbArc
50
134.99999999999986
51
314.99999999999977
0
LINE
5
130
100
AcDbEntity
8
0
100
AcDbLine
10
188.00000000000006
20
-25.887359312880744
30
0
11
188.00000000000006
21
25.887359312880655
31
0
0
ARC
5
131
100
AcDbEntity
8
0
100
AcDbCircle
10
190.12132034355969
20
28.0086796564403
30
0
40
2.9999999999999849
210
0
220
-0
230
1
100
AcDbArc
50
45.000000000000767
51
225.00000000000017
0
LINE
5
132
100
AcDbEntity
8
0
100
AcDbLine
10
192.24264068711929
20
30.12999999999996
30
0
11
200.00000000000003
21
30.129999999999932
31
0
0
LINE
5
133
100
AcDbEntity
8
0
100
AcDbLine
10
200.00000000000003
20
30.129999999999932
30
0
11
200.00000000000003
21
89.869999999999933
31
0
0
LINE
5
134
100
AcDbEntity
8
0
100
AcDbLine
10
200.00000000000003
20
89.869999999999933
30
0
11
192.24264068711932
21
89.869999999999933
31
0
0
ARC
5
135
100
AcDbEntity
8
0
100
AcDbCircle
10
190.12132034355969
20
91.991320343559607
30
3.8570500681358382e-48
40
2.9999999999999942
210
-8.7157639921052954e-33
220
6.2948954452091392e-47
230
1
100
AcDbArc
50
135
51
314.99999999999943
0
LINE
5
136
100
AcDbEntity
8
0
100
AcDbLine
10
188.00000000000006
20
94.112640687119239
30
-1.8488927466117659e-32
11
188.00000000000006
21
149.99999999999994
31
0
0
LINE
5
137
100
AcDbEntity
8
0
100
AcDbLine
10
188.00000000000006
20
149.99999999999994
30
0
11
7.5000000000000373
21
149.99999999999994
31
0
0
ARC
5
138
100
AcDbEntity
8
0
100
AcDbCircle
10
3.5527136788005009e-14
20
101.99999999999994
30
0
40
7.5
210
0
220
0
230
1
100
AcDbArc
50
-180
51
0
0
LINE
5
139
100
AcDbEntity
8
0
100
AcDbLine
10
7.5000000000000355
20
101.99999999999994
30
0
11
7.5000000000000373
21
149.99999999999994
31
0
0
LINE
5
140
100
AcDbEntity
8
0
100
AcDbLine
10
-7.4999999999999645
20
149.99999999999994
30
0
11
-7.4999999999999645
21
101.99999999999994
31
0
0
LINE
5
141
100
AcDbEntity
8
0
100
AcDbLine
10
7.5000000000000373
20
149.99999999999994
30
0
11
7.5000000000000373
21
155.00000230967999
31
0
0
LINE
5
142
100
AcDbEntity
8
0
100
AcDbLine
10
7.5000000000000373
20
155.00000230967999
30
0
11
-7.4999999999999645
21
155.00000230967999
31
0
0
LINE
5
143
100
AcDbEntity
8
0
100
AcDbLine
10
-7.4999999999999645
20
155.00000230967999
30
0
11
-7.4999999999999645
21
149.99999999999994
31
0
0
ENDSEC
0
SECTION
2
OBJECTS
0
DICTIONARY
5
C
100
AcDbDictionary
3
ACAD_GROUP
350
D
3
ACAD_MLINESTYLE
350
17
0
DICTIONARY
5
D
100
AcDbDictionary
0
DICTIONARY
5
1A
330
C
100
AcDbDictionary
0
DICTIONARY
5
17
100
AcDbDictionary
0
ENDSEC
0
EOF
