0
SECTION
2
HEADER
9
$INSUNITS
70
4
9
$ACADVER
1
AC1014
9
$HANDSEED
5
FFFF
0
ENDSEC
0
SECTION
2
TABLES
0
TABLE
2
VPORT
5
8
100
AcDbSymbolTable
0
ENDTAB
0
TABLE
2
LTYPE
5
5
100
AcDbSymbolTable
0
LTYPE
5
14
100
AcDbSymbolTableRecord
100
AcDbLinetypeTableRecord
2
BYBLOCK
70
0
0
LTYPE
5
15
100
AcDbSymbolTableRecord
100
AcDbLinetypeTableRecord
2
BYLAYER
70
0
0
ENDTAB
0
TABLE
2
LAYER
5
2
100
AcDbSymbolTable
70
2
0
LAYER
5
50
100
AcDbSymbolTableRecord
100
AcDbLayerTableRecord
2
0
70
0
6
CONTINUOUS
0
ENDTAB
0
TABLE
2
STYLE
5
3
100
AcDbSymbolTable
70
1
0
STYLE
5
11
100
AcDbSymbolTableRecord
100
AcDbTextStyleTableRecord
2
STANDARD
70
0
0
ENDTAB
0
TABLE
2
VIEW
5
6
100
AcDbSymbolTable
70
0
0
ENDTAB
0
TABLE
2
UCS
5
7
100
AcDbSymbolTable
70
0
0
ENDTAB
0
TABLE
2
APPID
5
9
100
AcDbSymbolTable
70
2
0
APPID
5
12
100
AcDbSymbolTableRecord
100
AcDbRegAppTableRecord
2
ACAD
70
0
0
ENDTAB
0
TABLE
2
DIMSTYLE
5
A
100
AcDbSymbolTable
70
1
0
ENDTAB
0
TABLE
2
BLOCK_RECORD
5
1
100
AcDbSymbolTable
70
1
0
BLOCK_RECORD
5
1F
100
AcDbSymbolTableRecord
100
AcDbBlockTableRecord
2
*MODEL_SPACE
0
BLOCK_RECORD
5
1B
100
AcDbSymbolTableRecord
100
AcDbBlockTableRecord
2
*PAPER_SPACE
0
ENDTAB
0
ENDSEC
0
SECTION
2
BLOCKS
0
BLOCK
5
20
100
AcDbEntity
100
AcDbBlockBegin
2
*MODEL_SPACE
0
ENDBLK
5
21
100
AcDbEntity
100
AcDbBlockEnd
0
BLOCK
5
1C
100
AcDbEntity
100
AcDbBlockBegin
2
*PAPER_SPACE
0
ENDBLK
5
1D
100
AcDbEntity
100
AcDbBlockEnd
0
ENDSEC
0
SECTION
2
ENTITIES
0
ARC
5
100
100
AcDbEntity
8
0
100
AcDbCircle
10
-157.87867973546585
20
-147.87867957741494
30
0
40
2.9999999999999458
210
0
220
0
230
1
100
AcDbArc
50
134.99999786556279
51
225.00000213443755
0
LINE
5
101
100
AcDbEntity
8
0
100
AcDbLine
10
-160
20
-145.75735915482989
30
0
11
-160
21
-139.24264255211693
31
0
0
ARC
5
102
100
AcDbEntity
8
0
100
AcDbCircle
10
-157.8786805889396
20
-137.1213212760585
30
0
40
2.9999999999999698
210
0
220
-0
230
1
100
AcDbArc
50
45.00002518632364
51
225.00002518632246
0
LINE
5
103
100
AcDbEntity
8
0
100
AcDbLine
10
-155.75736117787923
20
-135
30
0
11
-134.24264063443582
21
-135
31
0
0
ARC
5
104
100
AcDbEntity
8
0
100
AcDbCircle
10
-132.12132031721791
20
-137.12132036990141
30
0
40
3.0000000000000195
210
-0
220
0
230
1
100
AcDbArc
50
-45.000000711478023
51
134.99999928852273
0
LINE
5
105
100
AcDbEntity
8
0
100
AcDbLine
10
-130.00000000000003
20
-139.24264073980285
30
0
11
-130.00000000000003
21
-145.75735931288074
31
0
0
ARC
5
106
100
AcDbEntity
8
0
100
AcDbCircle
10
-132.12132034355966
20
-147.87867965644037
30
0
40
3.0000000000000067
210
0
220
0
230
1
100
AcDbArc
50
-45
51
45
0
LINE
5
107
100
AcDbEntity
8
0
100
AcDbLine
10
-130.00000000000003
20
-150
30
0
11
130.00000000000003
21
-150
31
0
0
ARC
5
108
100
AcDbEntity
8
0
100
AcDbCircle
10
132.12132034355966
20
-147.87867965644037
30
0
40
3.0000000000000067
210
0
220
0
230
1
100
AcDbArc
50
135
51
225
0
LINE
5
109
100
AcDbEntity
8
0
100
AcDbLine
10
130.00000000000003
20
-145.75735931288074
30
0
11
130.00000000000003
21
-139.24264073980282
31
0
0
ARC
5
110
100
AcDbEntity
8
0
100
AcDbCircle
10
132.12132031721791
20
-137.12132036990141
30
0
40
3.0000000000000071
210
0
220
-0
230
1
100
AcDbArc
50
45.000000711476879
51
225.00000071147764
0
LINE
5
111
100
AcDbEntity
8
0
100
AcDbLine
10
134.24264063443582
20
-135.00000000000003
30
0
11
155.75736117787923
21
-135
31
0
0
ARC
5
112
100
AcDbEntity
8
0
100
AcDbCircle
10
157.8786805889396
20
-137.1213212760585
30
0
40
2.9999999999999947
210
-0
220
0
230
1
100
AcDbArc
50
-45.000025186322468
51
134.99997481367637
0
LINE
5
113
100
AcDbEntity
8
0
100
AcDbLine
10
160
20
-139.24264255211693
30
0
11
160
21
-145.75735915482989
31
0
0
ARC
5
114
100
AcDbEntity
8
0
100
AcDbCircle
10
157.87867973546582
20
-147.87867957741494
30
0
40
2.9999999999999711
210
0
220
0
230
1
100
AcDbArc
50
-45.000002134436812
51
45.000002134436805
0
LINE
5
115
100
AcDbEntity
8
0
100
AcDbLine
10
160
20
-150
30
0
11
188
21
-150
31
0
0
LINE
5
116
100
AcDbEntity
8
0
100
AcDbLine
10
188
20
-150
30
0
11
188
21
-94.112640687119324
31
0
0
ARC
5
117
100
AcDbEntity
8
0
100
AcDbCircle
10
190.12132034355966
20
-91.991320343559664
30
0
40
3.0000000000000067
210
0
220
-0
230
1
100
AcDbArc
50
45.000000000000384
51
225
0
LINE
5
118
100
AcDbEntity
8
0
100
AcDbLine
10
192.24264068711929
20
-89.870000000000005
30
0
11
200
21
-89.870000000000019
31
0
0
LINE
5
119
100
AcDbEntity
8
0
100
AcDbLine
10
200
20
-89.870000000000019
30
0
11
200
21
-30.129999999999981
31
0
0
LINE
5
120
100
AcDbEntity
8
0
100
AcDbLine
10
200
20
-30.129999999999981
30
0
11
192.24264068711932
21
-30.129999999999981
31
0
0
ARC
5
121
100
AcDbEntity
8
0
100
AcDbCircle
10
190.1213203435596
20
-28.008679656440343
30
0
40
2.9999999999999876
210
0
220
0
230
1
100
AcDbArc
50
135
51
315.00000000000108
0
LINE
5
122
100
AcDbEntity
8
0
100
AcDbLine
10
187.99999999999997
20
-25.887359312880712
30
0
11
188
21
25.887359312880704
31
0
0
ARC
5
123
100
AcDbEntity
8
0
100
AcDbCircle
10
190.12132034355966
20
28.008679656440339
30
0
40
3.0000000000000036
210
0
220
-0
230
1
100
AcDbArc
50
45.000000000000249
51
224.99999999999963
0
LINE
5
124
100
AcDbEntity
8
0
100
AcDbLine
10
192.24264068711929
20
30.129999999999988
30
0
11
200
21
30.129999999999981
31
0
0
LINE
5
125
100
AcDbEntity
8
0
100
AcDbLine
10
200
20
30.129999999999981
30
0
11
200
21
89.870000000000005
31
0
0
LINE
5
126
100
AcDbEntity
8
0
100
AcDbLine
10
200
20
89.870000000000005
30
0
11
192.24264068711929
21
89.870000000000005
31
0
0
ARC
5
127
100
AcDbEntity
8
0
100
AcDbCircle
10
190.12132034355966
20
91.991320343559664
30
0
40
2.9999999999999942
210
0
220
0
230
1
100
AcDbArc
50
135.00000000000037
51
314.99999999999966
0
LINE
5
128
100
AcDbEntity
8
0
100
AcDbLine
10
188
20
94.112640687119296
30
0
11
188
21
138
31
0
0
LINE
5
129
100
AcDbEntity
8
0
100
AcDbLine
10
188
20
138
30
0
11
70.909307353785991
21
138
31
0
0
ARC
5
130
100
AcDbEntity
8
0
100
AcDbCircle
10
68.787987010226331
20
140.12132034355966
30
0
40
3.0000000000000004
210
0
220
0
230
1
100
AcDbArc
50
135.0000000000006
51
315
0
LINE
5
131
100
AcDbEntity
8
0
100
AcDbLine
10
66.666666666666657
20
142.24264068711929
30
0
11
66.666666666666686
21
150
31
0
0
LINE
5
132
100
AcDbEntity
8
0
100
AcDbLine
10
66.666666666666686
20
150
30
0
11
-66.666666666666686
21
150
31
0
0
LINE
5
133
100
AcDbEntity
8
0
100
AcDbLine
10
-66.666666666666686
20
150
30
0
11
-66.666666666666671
21
142.24264068711929
31
0
0
ARC
5
134
100
AcDbEntity
8
0
100
AcDbCircle
10
-68.787987010226331
20
140.12132034355966
30
0
40
3.0000000000000067
210
0
220
0
230
1
100
AcDbArc
50
-134.9999999999998
51
44.999999999999623
0
LINE
5
135
100
AcDbEntity
8
0
100
AcDbLine
10
-70.909307353785977
20
138
30
0
11
-188
21
138
31
0
0
LINE
5
136
100
AcDbEntity
8
0
100
AcDbLine
10
-188
20
138
30
0
11
-188
21
94.11264068711931
31
0
0
ARC
5
137
100
AcDbEntity
8
0
100
AcDbCircle
10
-190.12132034355966
20
91.991320343559678
30
0
40
3.0000000000000067
210
0
220
0
230
1
100
AcDbArc
50
-134.99999999999866
51
44.999999999999623
0
LINE
5
138
100
AcDbEntity
8
0
100
AcDbLine
10
-192.24264068711926
20
89.869999999999976
30
0
11
-200
21
89.870000000000005
31
0
0
LINE
5
139
100
AcDbEntity
8
0
100
AcDbLine
10
-200
20
89.870000000000005
30
0
11
-200
21
30.129999999999981
31
0
0
LINE
5
140
100
AcDbEntity
8
0
100
AcDbLine
10
-200
20
30.129999999999981
30
0
11
-192.24264068711929
21
30.129999999999981
31
0
0
ARC
5
141
100
AcDbEntity
8
0
100
AcDbCircle
10
-190.12132034355966
20
28.008679656440339
30
0
40
2.9999999999999973
210
-0
220
0
230
1
100
AcDbArc
50
-44.999999999999751
51
134.99999999999986
0
LINE
5
142
100
AcDbEntity
8
0
100
AcDbLine
10
-188
20
25.887359312880697
30
0
11
-188
21
-25.887359312880704
31
0
0
ARC
5
143
100
AcDbEntity
8
0
100
AcDbCircle
10
-190.12132034355966
20
-28.008679656440343
30
0
40
2.9999999999999876
210
0
220
0
230
1
100
AcDbArc
50
-134.99999999999918
51
44.999999999999709
0
LINE
5
144
100
AcDbEntity
8
0
100
AcDbLine
10
-192.24264068711926
20
-30.13000000000001
30
0
11
-200
21
-30.129999999999981
31
0
0
LINE
5
145
100
AcDbEntity
8
0
100
AcDbLine
10
-200
20
-30.129999999999981
30
0
11
-200
21
-89.869999999999976
31
0
0
LINE
5
146
100
AcDbEntity
8
0
100
AcDbLine
10
-200
20
-89.869999999999976
30
0
11
-192.24264068711929
21
-89.869999999999976
31
0
0
ARC
5
147
100
AcDbEntity
8
0
100
AcDbCircle
10
-190.12132034355966
20
-91.991320343559664
30
0
40
2.9999999999999942
210
-0
220
0
230
1
100
AcDbArc
50
-44.999999999999652
51
134.99999999999923
0
LINE
5
148
100
AcDbEntity
8
0
100
AcDbLine
10
-188
20
-94.112640687119296
30
0
11
-188
21
-150
31
0
0
LINE
5
149
100
AcDbEntity
8
0
100
AcDbLine
10
-188
20
-150
30
0
11
-160
21
-150.00000000000003
31
0
0
LINE
5
150
100
AcDbEntity
8
0
100
AcDbLine
10
-160
20
-150.00000000000003
30
0
11
-130.00000000000003
21
-150
31
0
0
LINE
5
151
100
AcDbEntity
8
0
100
AcDbLine
10
130.00000000000003
20
-150
30
0
11
160
21
-150
31
0
0
ENDSEC
0
SECTION
2
OBJECTS
0
DICTIONARY
5
C
100
AcDbDictionary
3
ACAD_GROUP
350
D
3
ACAD_MLINESTYLE
350
17
0
DICTIONARY
5
D
100
AcDbDictionary
0
DICTIONARY
5
1A
330
C
100
AcDbDictionary
0
DICTIONARY
5
17
100
AcDbDictionary
0
ENDSEC
0
EOF
