0
SECTION
2
HEADER
9
$INSUNITS
70
4
9
$ACADVER
1
AC1014
9
$HANDSEED
5
FFFF
0
ENDSEC
0
SECTION
2
TABLES
0
TABLE
2
VPORT
5
8
100
AcDbSymbolTable
0
ENDTAB
0
TABLE
2
LTYPE
5
5
100
AcDbSymbolTable
0
LTYPE
5
14
100
AcDbSymbolTableRecord
100
AcDbLinetypeTableRecord
2
BYBLOCK
70
0
0
LTYPE
5
15
100
AcDbSymbolTableRecord
100
AcDbLinetypeTableRecord
2
BYLAYER
70
0
0
ENDTAB
0
TABLE
2
LAYER
5
2
100
AcDbSymbolTable
70
2
0
LAYER
5
50
100
AcDbSymbolTableRecord
100
AcDbLayerTableRecord
2
0
70
0
6
CONTINUOUS
0
ENDTAB
0
TABLE
2
STYLE
5
3
100
AcDbSymbolTable
70
1
0
STYLE
5
11
100
AcDbSymbolTableRecord
100
AcDbTextStyleTableRecord
2
STANDARD
70
0
0
ENDTAB
0
TABLE
2
VIEW
5
6
100
AcDbSymbolTable
70
0
0
ENDTAB
0
TABLE
2
UCS
5
7
100
AcDbSymbolTable
70
0
0
ENDTAB
0
TABLE
2
APPID
5
9
100
AcDbSymbolTable
70
2
0
APPID
5
12
100
AcDbSymbolTableRecord
100
AcDbRegAppTableRecord
2
ACAD
70
0
0
ENDTAB
0
TABLE
2
DIMSTYLE
5
A
100
AcDbSymbolTable
70
1
0
ENDTAB
0
TABLE
2
BLOCK_RECORD
5
1
100
AcDbSymbolTable
70
1
0
BLOCK_RECORD
5
1F
100
AcDbSymbolTableRecord
100
AcDbBlockTableRecord
2
*MODEL_SPACE
0
BLOCK_RECORD
5
1B
100
AcDbSymbolTableRecord
100
AcDbBlockTableRecord
2
*PAPER_SPACE
0
ENDTAB
0
ENDSEC
0
SECTION
2
BLOCKS
0
BLOCK
5
20
100
AcDbEntity
100
AcDbBlockBegin
2
*MODEL_SPACE
0
ENDBLK
5
21
100
AcDbEntity
100
AcDbBlockEnd
0
BLOCK
5
1C
100
AcDbEntity
100
AcDbBlockBegin
2
*PAPER_SPACE
0
ENDBLK
5
1D
100
AcDbEntity
100
AcDbBlockEnd
0
ENDSEC
0
SECTION
2
ENTITIES
0
CIRCLE
5
100
100
AcDbEntity
8
0
100
AcDbCircle
10
-100.00000000000783
20
189.86999999999921
30
0
40
3.0000000000000071
210
0
220
-0
230
1
0
CIRCLE
5
101
100
AcDbEntity
8
0
100
AcDbCircle
10
99.999999999991971
20
99.869999999998782
30
0
40
3.0000000000000004
210
4.8778504097747241e-47
220
1.2325951644078309e-32
230
1
0
CIRCLE
5
102
100
AcDbEntity
8
0
100
AcDbCircle
10
99.999999999992099
20
159.86999999999878
30
0
40
3.0000000000000071
210
0
220
-0
230
1
0
CIRCLE
5
103
100
AcDbEntity
8
0
100
AcDbCircle
10
-100.00000000000803
20
99.869999999999209
30
0
40
3.0000000000000071
210
0
220
-0
230
1
0
CIRCLE
5
104
100
AcDbEntity
8
0
100
AcDbCircle
10
-100.0000000000081
20
69.869999999999209
30
0
40
3.0000000000000071
210
0
220
-0
230
1
0
CIRCLE
5
105
100
AcDbEntity
8
0
100
AcDbCircle
10
-2.8421709430404007e-13
20
99.870000000000161
30
0
40
3.0000000000000004
210
4.8778504097747241e-47
220
1.2325951644078309e-32
230
1
0
CIRCLE
5
106
100
AcDbEntity
8
0
100
AcDbCircle
10
-100.0000000000079
20
159.86999999999921
30
0
40
3.0000000000000071
210
0
220
-0
230
1
0
CIRCLE
5
107
100
AcDbEntity
8
0
100
AcDbCircle
10
-7.8328406136480458e-12
20
189.86999999999898
30
0
40
3.0000000000000004
210
4.8778504097747241e-47
220
1.2325951644078309e-32
230
1
0
CIRCLE
5
108
100
AcDbEntity
8
0
100
AcDbCircle
10
-8.094563680902827e-12
20
69.869999999998996
30
0
40
3.0000000000000004
210
4.8778504097747241e-47
220
1.2325951644078309e-32
230
1
0
CIRCLE
5
109
100
AcDbEntity
8
0
100
AcDbCircle
10
-7.8982713804617407e-12
20
159.86999999999898
30
0
40
3.0000000000000004
210
4.8778504097747241e-47
220
1.2325951644078309e-32
230
1
0
CIRCLE
5
110
100
AcDbEntity
8
0
100
AcDbCircle
10
99.9999999999919
20
69.869999999998782
30
0
40
3.0000000000000071
210
0
220
-0
230
1
0
CIRCLE
5
111
100
AcDbEntity
8
0
100
AcDbCircle
10
-100.00000000000796
20
129.86999999999921
30
0
40
3.0000000000000071
210
0
220
-0
230
1
0
CIRCLE
5
112
100
AcDbEntity
8
0
100
AcDbCircle
10
99.999999999992042
20
129.86999999999875
30
0
40
3.0000000000000071
210
0
220
-0
230
1
0
CIRCLE
5
113
100
AcDbEntity
8
0
100
AcDbCircle
10
-7.9637021472754372e-12
20
129.86999999999898
30
0
40
3.0000000000000071
210
0
220
-0
230
1
0
CIRCLE
5
114
100
AcDbEntity
8
0
100
AcDbCircle
10
99.99999999999217
20
189.86999999999878
30
0
40
3.0000000000000071
210
0
220
-0
230
1
0
LWPOLYLINE
5
115
100
AcDbEntity
8
0
100
AcDbPolyline
90
8
70
1
43
0.0
10
34.112640687129797
20
-50.259999999999501
42
-0.99999999999999989
10
29.869999999991634
20
-46.017359312899089
10
29.869999999992789
20
-42.242640687122694
42
-0.99999999999999989
10
34.112640687109732
20
-38.000000000001073
10
85.887359312861207
20
-38.000000000001783
42
-0.99999999999999989
10
90.129999999991554
20
-42.242640687109954
10
90.129999999967367
20
-46.01735931285986
42
-0.99999999999999989
10
85.887359312871325
20
-50.260000000002407
0
ARC
5
116
100
AcDbEntity
8
0
100
AcDbCircle
10
-88.008679656415808
20
-40.121320343529597
30
7.5265054236196229e-47
40
2.9999999999999938
210
8.7157639921052612e-33
220
1.6869635565394704e-44
230
1
100
AcDbArc
50
45.000000000110745
51
225.00000000011084
0
LINE
5
117
100
AcDbEntity
8
0
100
AcDbLine
10
-85.887359312860269
20
-37.999999999965858
30
-1.8488927466117404e-32
11
-34.112640687098441
21
-37.999999999990884
31
0
0
ARC
5
118
100
AcDbEntity
8
0
100
AcDbCircle
10
-31.991320343540611
20
-40.121320343552327
30
0
40
3.0000000000000004
210
0
220
0
230
1
100
AcDbArc
50
-45.000000000017913
51
134.99999999995123
0
LINE
5
119
100
AcDbEntity
8
0
100
AcDbLine
10
-29.86999999998163
20
-42.242640687112633
30
0
11
-29.869999999982738
21
-46.017359312890193
31
0
0
ARC
5
120
100
AcDbEntity
8
0
100
AcDbCircle
10
-31.991320343552459
20
-48.138679656439756
30
0
40
2.9999999999999973
210
-6.0700319795309338e-45
220
6.0700319795733884e-45
230
1
100
AcDbArc
50
-135.00000000020037
51
44.99999999972777
0
LINE
5
121
100
AcDbEntity
8
0
100
AcDbLine
10
-34.112640687119516
20
-50.259999999991976
30
0
11
-85.887359312863808
21
-50.259999999976735
31
0
0
ARC
5
122
100
AcDbEntity
8
0
100
AcDbCircle
10
-88.008679656411175
20
-48.138679656404818
30
4.276423536147513e-47
40
2.9999999999999876
210
9.5138449693380952e-44
220
-8.7157639920583573e-33
230
1
100
AcDbArc
50
135.00000000031724
51
314.99999999966849
0
LINE
5
123
100
AcDbEntity
8
0
100
AcDbLine
10
-90.129999999982559
20
-46.017359312856925
30
1.8488927466117404e-32
11
-90.129999999971346
21
-42.242640687093342
31
1.8488927466117557e-32
0
LWPOLYLINE
5
124
100
AcDbEntity
8
0
100
AcDbPolyline
90
6
70
1
43
0.0
10
50.112255674585825
20
297.86333323738012
42
-0.20335596200829983
10
61.535719085231108
20
295.25786679016289
10
84.808019576849006
20
278.45009421289637
42
-0.72762538254769205
10
80.416840423051838
20
264.8699999999987
10
-49.817792491909067
20
264.86999999999898
42
-0.91519883328782181
10
-51.13834504338427
20
279.75282743642424
0
ARC
5
125
100
AcDbEntity
8
0
100
AcDbCircle
10
-31.991320343540004
20
239.86132034355046
30
0
40
3.0000000000000036
210
-2.0685813588871184e-45
220
2.0685813588835286e-45
230
1
100
AcDbArc
50
-134.99999999995001
51
45.000000000049617
0
LINE
5
126
100
AcDbEntity
8
0
100
AcDbLine
10
-34.112640687097809
20
237.73999999998895
30
0
11
-85.887359312859672
21
237.73999999996423
31
0
0
ARC
5
127
100
AcDbEntity
8
0
100
AcDbCircle
10
-88.008679656415183
20
239.86132034352795
30
-8.7239040137409266e-47
40
3.0000000000000067
210
-1.9965679388990902e-44
220
2.1586947116055657e-44
230
1
100
AcDbArc
50
135.00000000016121
51
314.99999879274333
0
LINE
5
128
100
AcDbEntity
8
0
100
AcDbLine
10
-90.129999999980811
20
241.98264068708164
30
-8.8233670973618795e-44
11
-90.129999999981948
21
245.75735931285533
31
0
0
ARC
5
129
100
AcDbEntity
8
0
100
AcDbCircle
10
-88.008679656410536
20
247.87867965640319
30
0
40
3.0000000000000067
210
4.3578819960778519e-33
220
-4.3578819960273833e-33
230
1
100
AcDbArc
50
45.000000000331823
51
224.99999999968199
0
LINE
5
130
100
AcDbEntity
8
0
100
AcDbLine
10
-85.887359312863168
20
249.99999999997513
30
0
11
-34.112640687118855
21
249.99999999999011
31
0
0
ARC
5
131
100
AcDbEntity
8
0
100
AcDbCircle
10
-31.991320343551799
20
247.87867965643784
30
0
40
2.9999999999999876
210
-0
220
0
230
1
100
AcDbArc
50
-44.999999999728715
51
135.00000000019969
0
LINE
5
132
100
AcDbEntity
8
0
100
AcDbLine
10
-29.869999999982113
20
245.75735931288824
30
0
11
-29.869999999982198
21
241.98264068711194
31
0
0
ARC
5
133
100
AcDbEntity
8
0
100
AcDbCircle
10
31.991320343561405
20
247.87867965644708
30
-4.9606513019311151e-47
40
2.9999999999999938
210
-5.5468839552044403e-45
220
-5.5468839551691391e-45
230
1
100
AcDbArc
50
44.999999999817767
51
224.99999999981776
0
LINE
5
134
100
AcDbEntity
8
0
100
AcDbLine
10
34.112640687127794
20
249.99999999999997
30
2.3483829041985261e-44
11
85.887359312872107
21
250
31
-7.6633509767763434e-46
0
ARC
5
135
100
AcDbEntity
8
0
100
AcDbCircle
10
88.008679656420043
20
247.8786796564286
30
0
40
2.9999999999999565
210
-4.9678368693189833e-44
220
-4.9678368693775971e-44
230
1
100
AcDbArc
50
-44.999999999662045
51
134.99999999968318
0
LINE
5
136
100
AcDbEntity
8
0
100
AcDbLine
10
90.129999999992165
20
245.7573593128815
30
0
11
90.129999999992151
21
241.98264068710762
31
0
0
ARC
5
137
100
AcDbEntity
8
0
100
AcDbCircle
10
88.008679656427077
20
239.86132034355342
30
1.7105694144590052e-48
40
2.9999999999999813
210
-4.357881996042983e-33
220
-4.3578819960622871e-33
230
1
100
AcDbArc
50
-134.99999999987313
51
44.999999999853188
0
LINE
5
138
100
AcDbEntity
8
0
100
AcDbLine
10
85.88735931287215
20
237.7399999999891
30
-1.8488927466117399e-32
11
34.112640687110357
21
237.73999999999884
31
0
0
ARC
5
139
100
AcDbEntity
8
0
100
AcDbCircle
10
31.991320343551877
20
239.86132034355967
30
-7.1843915407278219e-47
40
3.0000000000000004
210
2.2621351283752817e-45
220
-2.2621351283754235e-45
230
1
100
AcDbArc
50
134.9999999999981
51
314.99999999996834
0
LINE
5
140
100
AcDbEntity
8
0
100
AcDbLine
10
29.869999999992302
20
241.98264068711939
30
9.5255826199998005e-45
11
29.869999999995017
21
245.75735931289418
31
-2.3580777827439774e-44
0
LINE
5
141
100
AcDbEntity
8
0
100
AcDbLine
10
108.46153846152828
20
-100.13000000000012
30
0
11
149.99999999999145
21
-100.13000000000049
31
0
0
LINE
5
142
100
AcDbEntity
8
0
100
AcDbLine
10
149.99999999999145
20
-100.13000000000049
30
0
11
149.9999999999923
21
249.86999999999961
31
0
0
LINE
5
143
100
AcDbEntity
8
0
100
AcDbLine
10
149.9999999999923
20
249.86999999999961
30
0
11
65.159038697640284
21
311.14402760716382
31
0
0
ARC
5
144
100
AcDbEntity
8
0
100
AcDbCircle
10
56.376680389980379
20
298.98383918116389
30
0
40
14.999999999998185
210
-4.9961964840591369e-33
220
3.6083641273732804e-33
230
1
100
AcDbArc
50
54.162347045742493
51
100.14114532058095
0
LINE
5
145
100
AcDbEntity
8
0
100
AcDbLine
10
53.735575286997623
20
313.74949405438042
30
0
11
-150.00000000000767
21
277.30769230770204
31
0
0
LINE
5
146
100
AcDbEntity
8
0
100
AcDbLine
10
-150.00000000000767
20
277.30769230770204
30
0
11
-150.0000000000077
21
250.00000000000193
31
0
0
LINE
5
147
100
AcDbEntity
8
0
100
AcDbLine
10
-150.0000000000077
20
250.00000000000193
30
0
11
-142.11264068712876
21
250.00000000000188
31
0
0
ARC
5
148
100
AcDbEntity
8
0
100
AcDbCircle
10
-139.99132034354633
20
247.87867965646501
30
-7.5964348269077369e-47
40
2.9999999999999942
210
-4.3578819958860485e-33
220
4.35788199603284e-33
230
1
100
AcDbArc
50
-45.000000000609901
51
135.00000000061527
0
LINE
5
149
100
AcDbEntity
8
0
100
AcDbLine
10
-137.87000000000927
20
245.75735931288278
30
1.8488927465722024e-32
11
-137.87000000001046
21
153.98264068711586
31
0
0
ARC
5
150
100
AcDbEntity
8
0
100
AcDbCircle
10
-139.9913203435801
20
151.86132034356621
30
0
40
2.9999999999999938
210
4.3578819960872956e-33
220
-4.3578819960668605e-33
230
1
100
AcDbArc
50
-134.99999999986565
51
44.999999999730179
0
LINE
5
151
100
AcDbEntity
8
0
100
AcDbLine
10
-142.11264068713476
20
149.7400000000016
30
0
11
-150.00000964273252
21
149.7400000000008
31
0
0
LINE
5
152
100
AcDbEntity
8
0
100
AcDbLine
10
-150.00000000000793
20
149.74000000000083
30
0
11
-150.00000000000819
21
50.000000000002359
31
0
0
LINE
5
153
100
AcDbEntity
8
0
100
AcDbLine
10
-150.00000964273272
20
49.999999999997897
30
0
11
-142.11264068713496
21
49.999999999997023
31
0
0
ARC
5
154
100
AcDbEntity
8
0
100
AcDbCircle
10
-139.99132034357083
20
47.87867965643737
30
0
40
2.9999999999999876
210
-4.3578819960419949e-33
220
-4.3578819960632518e-33
230
1
100
AcDbArc
50
-44.999999999860307
51
135.00000000006037
0
LINE
5
155
100
AcDbEntity
8
0
100
AcDbLine
10
-137.87000000000603
20
45.757359312882912
30
0
11
-137.87000000001018
21
-46.017359312883954
31
0
0
ARC
5
156
100
AcDbEntity
8
0
100
AcDbCircle
10
-139.9913203435471
20
-48.138679656466309
30
0
40
2.9999999999999938
210
0
220
0
230
1
100
AcDbArc
50
-134.99999999986318
51
45.000000000613547
0
LINE
5
157
100
AcDbEntity
8
0
100
AcDbLine
10
-142.11264068710167
20
-50.260000000031013
30
0
11
-150.00000000000838
21
-50.260000000003245
31
-2.1895288505075267e-46
0
LINE
5
158
100
AcDbEntity
8
0
100
AcDbLine
10
-150.00000000000838
20
-50.260000000003245
30
-2.1895288505075267e-46
11
-150.00000000000853
21
-100.12999999999771
31
0
0
LINE
5
159
100
AcDbEntity
8
0
100
AcDbLine
10
-150.00000000000853
20
-100.12999999999771
30
0
11
-135.00000000000855
21
-100.12999999999781
31
0
0
LINE
5
160
100
AcDbEntity
8
0
100
AcDbLine
10
-135.00000000000855
20
-100.12999999999781
30
0
11
53.731023183443213
21
-66.2552009670774
31
0
0
ARC
5
161
100
AcDbEntity
8
0
100
AcDbCircle
10
56.380984125308224
20
-81.019269071758217
30
-8.4844242957166659e-46
40
14.999999999768823
210
-5.2303698884245481e-33
220
-5.4144617455204135e-33
230
1
100
AcDbArc
50
54.16234704572279
51
100.1755108430403
0
LINE
5
162
100
AcDbEntity
8
0
100
AcDbLine
10
65.163342432838022
20
-68.859080645947245
30
1.1177585749093176e-31
11
108.46153846152828
21
-100.13000000000012
31
0
0
CIRCLE
5
163
100
AcDbEntity
8
0
100
AcDbCircle
10
-8.2254252145302184e-12
20
9.8699999999989885
30
0
40
3.0000000000000004
210
4.9879270876105144e-48
220
1.2325951644078309e-32
230
1
0
CIRCLE
5
164
100
AcDbEntity
8
0
100
AcDbCircle
10
-100.00000000000816
20
39.86999999999923
30
0
40
3.0000000000000071
210
4.3790577010150533e-47
220
-9.550836776627769e-62
230
1
0
CIRCLE
5
165
100
AcDbEntity
8
0
100
AcDbCircle
10
-100.00000000000823
20
9.8699999999992016
30
0
40
3.0000000000000071
210
4.3790577010150533e-47
220
-9.550836776627769e-62
230
1
0
CIRCLE
5
166
100
AcDbEntity
8
0
100
AcDbCircle
10
99.999999999991772
20
9.8699999999987753
30
0
40
3.0000000000000071
210
4.3790577010150533e-47
220
-9.550836776627769e-62
230
1
0
CIRCLE
5
167
100
AcDbEntity
8
0
100
AcDbCircle
10
-8.2908559813439149e-12
20
-20.130000000001008
30
0
40
3.0000000000000004
210
4.9879270876105144e-48
220
1.2325951644078309e-32
230
1
0
CIRCLE
5
168
100
AcDbEntity
8
0
100
AcDbCircle
10
-8.1599944477165235e-12
20
39.869999999998996
30
0
40
3.0000000000000004
210
4.9879270876105144e-48
220
1.2325951644078309e-32
230
1
0
CIRCLE
5
169
100
AcDbEntity
8
0
100
AcDbCircle
10
99.999999999991843
20
39.869999999998782
30
0
40
3.0000000000000071
210
4.3790577010150533e-47
220
-9.550836776627769e-62
230
1
0
CIRCLE
5
170
100
AcDbEntity
8
0
100
AcDbCircle
10
-100.0000000000083
20
-20.130000000000795
30
0
40
3.0000000000000071
210
4.3790577010150533e-47
220
-9.550836776627769e-62
230
1
0
CIRCLE
5
171
100
AcDbEntity
8
0
100
AcDbCircle
10
99.999999999991701
20
-20.130000000001221
30
0
40
3.0000000000000071
210
4.3790577010150533e-47
220
-9.550836776627769e-62
230
1
0
ENDSEC
0
SECTION
2
OBJECTS
0
DICTIONARY
5
C
100
AcDbDictionary
3
ACAD_GROUP
350
D
3
ACAD_MLINESTYLE
350
17
0
DICTIONARY
5
D
100
AcDbDictionary
0
DICTIONARY
5
1A
330
C
100
AcDbDictionary
0
DICTIONARY
5
17
100
AcDbDictionary
0
ENDSEC
0
EOF
