0
SECTION
2
HEADER
9
$INSUNITS
70
4
9
$ACADVER
1
AC1014
9
$HANDSEED
5
FFFF
0
ENDSEC
0
SECTION
2
TABLES
0
TABLE
2
VPORT
5
8
100
AcDbSymbolTable
0
ENDTAB
0
TABLE
2
LTYPE
5
5
100
AcDbSymbolTable
0
LTYPE
5
14
100
AcDbSymbolTableRecord
100
AcDbLinetypeTableRecord
2
BYBLOCK
70
0
0
LTYPE
5
15
100
AcDbSymbolTableRecord
100
AcDbLinetypeTableRecord
2
BYLAYER
70
0
0
ENDTAB
0
TABLE
2
LAYER
5
2
100
AcDbSymbolTable
70
2
0
LAYER
5
50
100
AcDbSymbolTableRecord
100
AcDbLayerTableRecord
2
0
70
0
6
CONTINUOUS
0
ENDTAB
0
TABLE
2
STYLE
5
3
100
AcDbSymbolTable
70
1
0
STYLE
5
11
100
AcDbSymbolTableRecord
100
AcDbTextStyleTableRecord
2
STANDARD
70
0
0
ENDTAB
0
TABLE
2
VIEW
5
6
100
AcDbSymbolTable
70
0
0
ENDTAB
0
TABLE
2
UCS
5
7
100
AcDbSymbolTable
70
0
0
ENDTAB
0
TABLE
2
APPID
5
9
100
AcDbSymbolTable
70
2
0
APPID
5
12
100
AcDbSymbolTableRecord
100
AcDbRegAppTableRecord
2
ACAD
70
0
0
ENDTAB
0
TABLE
2
DIMSTYLE
5
A
100
AcDbSymbolTable
70
1
0
ENDTAB
0
TABLE
2
BLOCK_RECORD
5
1
100
AcDbSymbolTable
70
1
0
BLOCK_RECORD
5
1F
100
AcDbSymbolTableRecord
100
AcDbBlockTableRecord
2
*MODEL_SPACE
0
BLOCK_RECORD
5
1B
100
AcDbSymbolTableRecord
100
AcDbBlockTableRecord
2
*PAPER_SPACE
0
ENDTAB
0
ENDSEC
0
SECTION
2
BLOCKS
0
BLOCK
5
20
100
AcDbEntity
100
AcDbBlockBegin
2
*MODEL_SPACE
0
ENDBLK
5
21
100
AcDbEntity
100
AcDbBlockEnd
0
BLOCK
5
1C
100
AcDbEntity
100
AcDbBlockBegin
2
*PAPER_SPACE
0
ENDBLK
5
1D
100
AcDbEntity
100
AcDbBlockEnd
0
ENDSEC
0
SECTION
2
ENTITIES
0
CIRCLE
5
100
100
AcDbEntity
8
0
100
AcDbCircle
10
-99.999999999997783
20
129.8699999999987
30
0
40
3.0000000000000071
210
2.1895288505075267e-47
220
4.7754183883114327e-62
230
1
0
CIRCLE
5
101
100
AcDbEntity
8
0
100
AcDbCircle
10
100.0000000000023
20
99.869999999999266
30
0
40
3.0000000000000071
210
2.1895288505075267e-47
220
4.7754183883114327e-62
230
1
0
CIRCLE
5
102
100
AcDbEntity
8
0
100
AcDbCircle
10
-99.999999999997598
20
69.869999999998697
30
0
40
3.0000000000000071
210
2.1895288505075267e-47
220
4.7754183883114327e-62
230
1
0
CIRCLE
5
103
100
AcDbEntity
8
0
100
AcDbCircle
10
2.0568880862492264e-12
20
189.86999999999898
30
0
40
3.0000000000000004
210
2.6883215592671979e-47
220
-1.2325951644078309e-32
230
1
0
CIRCLE
5
104
100
AcDbEntity
8
0
100
AcDbCircle
10
100.00000000000206
20
189.86999999999927
30
0
40
3.0000000000000071
210
2.1895288505075267e-47
220
4.7754183883114327e-62
230
1
0
CIRCLE
5
105
100
AcDbEntity
8
0
100
AcDbCircle
10
2.4009535887256796e-12
20
69.869999999998981
30
0
40
3.0000000000000004
210
2.6883215592671979e-47
220
-1.2325951644078309e-32
230
1
0
CIRCLE
5
106
100
AcDbEntity
8
0
100
AcDbCircle
10
-99.999999999997854
20
159.8699999999987
30
0
40
3.0000000000000071
210
2.1895288505075267e-47
220
4.7754183883114327e-62
230
1
0
CIRCLE
5
107
100
AcDbEntity
8
0
100
AcDbCircle
10
2.2289208374874532e-12
20
129.86999999999898
30
0
40
3.0000000000000071
210
2.1895288505075267e-47
220
4.7754183883114327e-62
230
1
0
CIRCLE
5
108
100
AcDbEntity
8
0
100
AcDbCircle
10
100.0000000000024
20
69.869999999999266
30
0
40
3.0000000000000071
210
2.1895288505075267e-47
220
4.7754183883114327e-62
230
1
0
CIRCLE
5
109
100
AcDbEntity
8
0
100
AcDbCircle
10
2.9339878688650593e-13
20
99.870000000000061
30
0
40
3.0000000000000004
210
2.6883215592671979e-47
220
-1.2325951644078309e-32
230
1
0
CIRCLE
5
110
100
AcDbEntity
8
0
100
AcDbCircle
10
100.00000000000215
20
159.86999999999932
30
0
40
3.0000000000000071
210
2.1895288505075267e-47
220
4.7754183883114327e-62
230
1
0
CIRCLE
5
111
100
AcDbEntity
8
0
100
AcDbCircle
10
-99.999999999997939
20
189.8699999999987
30
0
40
3.0000000000000071
210
2.1895288505075267e-47
220
4.7754183883114327e-62
230
1
0
CIRCLE
5
112
100
AcDbEntity
8
0
100
AcDbCircle
10
-99.999999999997698
20
99.869999999998697
30
0
40
3.0000000000000004
210
2.6883215592671979e-47
220
-1.2325951644078309e-32
230
1
0
CIRCLE
5
113
100
AcDbEntity
8
0
100
AcDbCircle
10
100.00000000000222
20
129.86999999999932
30
0
40
3.0000000000000071
210
2.1895288505075267e-47
220
4.7754183883114327e-62
230
1
0
CIRCLE
5
114
100
AcDbEntity
8
0
100
AcDbCircle
10
2.14290446186834e-12
20
159.86999999999898
30
0
40
3.0000000000000004
210
2.6883215592671979e-47
220
-1.2325951644078309e-32
230
1
0
LWPOLYLINE
5
115
100
AcDbEntity
8
0
100
AcDbPolyline
90
8
70
1
43
0.0
10
-34.112640687136313
20
249.9999999999973
42
-0.99999999999999989
10
-29.869999999998129
20
245.75735931289694
10
-29.869999999999209
20
241.98264068712049
42
-0.99999999999999989
10
-34.112640687116162
20
237.73999999999887
10
-85.887359312867844
20
237.73999999999921
42
-0.99999999999999989
10
-90.129999999997949
20
241.98264068710762
10
-90.129999999973791
20
245.75735931285726
42
-0.99999999999999989
10
-85.887359312877933
20
249.99999999999994
0
LWPOLYLINE
5
116
100
AcDbEntity
8
0
100
AcDbPolyline
90
8
70
1
43
0.0
10
-29.870000000001255
20
-46.017359312895103
42
-0.99999999999999989
10
-34.112640687131389
20
-50.260000000003522
10
-85.887359312840687
20
-50.259999999966197
42
-0.99999999999999989
10
-90.130000000009233
20
-46.01735931289619
10
-90.129999999981422
20
-42.242640687125771
42
-0.99999999999999989
10
-85.887359312882566
20
-37.999999999986066
10
-34.112640687116716
20
-38.000000000002458
42
-0.99999999999999989
10
-29.869999999997049
20
-42.242640687121344
0
ARC
5
117
100
AcDbEntity
8
0
100
AcDbCircle
10
88.00867965641018
20
-40.121320343529554
30
0
40
2.9999999999999876
210
4.6711066801360401e-48
220
-4.6711066801095789e-48
230
1
100
AcDbArc
50
-44.999999999837719
51
134.9999999998887
0
LINE
5
118
100
AcDbEntity
8
0
100
AcDbLine
10
90.129999999975823
20
-42.242640687083181
30
-1.9817827254963637e-47
11
90.129999999976945
21
-46.017359312856847
31
0
0
ARC
5
119
100
AcDbEntity
8
0
100
AcDbCircle
10
88.008679656405562
20
-48.138679656404761
30
0
40
2.9999999999999813
210
-5.2951702566227172e-44
220
8.7157639921077463e-33
230
1
100
AcDbArc
50
-134.99999999966818
51
44.999999999683048
0
LINE
5
120
100
AcDbEntity
8
0
100
AcDbLine
10
85.887359312858223
20
-50.259999999976671
30
1.8488927466117388e-32
11
34.112640687113895
21
-50.259999999991962
31
0
0
ARC
5
121
100
AcDbEntity
8
0
100
AcDbCircle
10
31.991320343546846
20
-48.138679656439734
30
0
40
2.9999999999999973
210
-1.1544237051443971e-44
220
-1.1544237051553713e-44
230
1
100
AcDbArc
50
135.00000000027237
51
315.00000000020015
0
LINE
5
122
100
AcDbEntity
8
0
100
AcDbLine
10
29.869999999977122
20
-46.017359312890179
30
0
11
29.869999999976017
21
-42.242640687112605
31
0
0
ARC
5
123
100
AcDbEntity
8
0
100
AcDbCircle
10
31.991320343534987
20
-40.121320343552313
30
0
40
2.9999999999999973
210
-2.8844725220403368e-45
220
2.8783324284176677e-45
230
1
100
AcDbArc
50
45.000000000049226
51
225.00000000001785
0
LINE
5
124
100
AcDbEntity
8
0
100
AcDbLine
10
34.112640687092807
20
-37.999999999990848
30
1.3025105502649192e-47
11
85.88735931285467
21
-37.999999999965802
31
8.8266513906376447e-44
0
LWPOLYLINE
5
125
100
AcDbEntity
8
0
100
AcDbPolyline
90
6
70
1
43
0.0
10
-61.535719085236948
20
295.25786679016289
42
-0.2033559620082952
10
-50.112255674591694
20
297.86333323738012
10
51.138345043378436
20
279.7528274364243
42
-0.91519883328781992
10
49.817792491903234
20
264.86999999999904
10
-80.416840423057664
20
264.8699999999987
42
-0.72762538254768938
10
-84.808019576854861
20
278.45009421289643
0
LWPOLYLINE
5
126
100
AcDbEntity
8
0
100
AcDbPolyline
90
8
70
1
43
0.0
10
34.112640687093538
20
237.73999999999057
42
-0.99999999999999989
10
29.869999999974802
20
241.9826406871104
10
29.869999999980223
20
245.75735931288438
42
-0.99999999999999989
10
34.112640687111728
20
249.99999999999145
10
85.887359312833311
20
249.99999999995117
42
-0.99999999999999989
10
90.129999999976107
20
245.75735931285544
10
90.129999999964866
20
241.98264068709182
42
-0.99999999999999989
10
85.88735931285386
20
237.73999999996431
0
LINE
5
127
100
AcDbEntity
8
0
100
AcDbLine
10
-149.99999999999704
20
-100.13000000000055
30
0
11
-108.46153846153386
21
-100.13000000000014
31
0
0
LINE
5
128
100
AcDbEntity
8
0
100
AcDbLine
10
-108.46153846153386
20
-100.13000000000014
30
0
11
-65.163342432843621
21
-68.859080645947316
31
0
0
ARC
5
129
100
AcDbEntity
8
0
100
AcDbCircle
10
-56.380984125313816
20
-81.019269071758202
30
0
40
14.999999999768736
210
0
220
-0
230
1
100
AcDbArc
50
79.824489156959828
51
125.83765295427744
0
LINE
5
130
100
AcDbEntity
8
0
100
AcDbLine
10
-53.731023183448841
20
-66.255200967077428
30
0
11
135.00000000000296
21
-100.12999999999771
31
0
0
LINE
5
131
100
AcDbEntity
8
0
100
AcDbLine
10
135.00000000000296
20
-100.12999999999771
30
0
11
150.00000000000296
21
-100.12999999999761
31
0
0
LINE
5
132
100
AcDbEntity
8
0
100
AcDbLine
10
150.00000000000296
20
-100.12999999999761
30
0
11
150.00000000000279
21
-50.260000000003146
31
0
0
LINE
5
133
100
AcDbEntity
8
0
100
AcDbLine
10
150.00000000000279
20
-50.260000000003146
30
0
11
142.11264068712381
21
-50.260000000003153
31
0
0
ARC
5
134
100
AcDbEntity
8
0
100
AcDbCircle
10
139.99132034354147
20
-48.138679656466195
30
0
40
2.9999999999999942
210
0
220
0
230
1
100
AcDbArc
50
134.99999999941718
51
315.00000000061283
0
LINE
5
135
100
AcDbEntity
8
0
100
AcDbLine
10
137.87000000000342
20
-46.017359312884977
30
0
11
137.87000000000509
21
45.75735931288277
31
0
0
ARC
5
136
100
AcDbEntity
8
0
100
AcDbCircle
10
139.99132034356515
20
47.878679656437477
30
2.4853799788103783e-47
40
2.9999999999999876
210
4.3578819960632464e-33
220
4.3578819960839559e-33
230
1
100
AcDbArc
50
45.000000000135955
51
224.99999999992772
0
LINE
5
137
100
AcDbEntity
8
0
100
AcDbLine
10
142.11264068711975
20
50.000000000002146
30
-1.8488927466206365e-32
11
150.00000964272704
21
49.999999999998003
31
0
0
LINE
5
138
100
AcDbEntity
8
0
100
AcDbLine
10
150.0000000000025
20
50.000000000002451
30
0
11
150.00000000000219
21
149.74000000000092
31
0
0
LINE
5
139
100
AcDbEntity
8
0
100
AcDbLine
10
150.00000964272675
20
149.74000000000092
30
0
11
142.11264068712899
21
149.74000000000171
31
0
0
ARC
5
140
100
AcDbEntity
8
0
100
AcDbCircle
10
139.99132034357433
20
151.86132034356629
30
0
40
2.9999999999999813
210
0
220
0
230
1
100
AcDbArc
50
135.00000000026947
51
314.99999999986608
0
LINE
5
141
100
AcDbEntity
8
0
100
AcDbLine
10
137.87000000000472
20
153.98264068711595
30
0
11
137.87000000000344
21
245.7573593128829
31
0
0
ARC
5
142
100
AcDbEntity
8
0
100
AcDbCircle
10
139.99132034354051
20
247.87867965646515
30
0
40
2.9999999999999813
210
-9.3409838129095432e-44
220
9.3409838131100198e-44
230
1
100
AcDbArc
50
44.999999999385103
51
225.0000000006103
0
LINE
5
143
100
AcDbEntity
8
0
100
AcDbLine
10
142.11264068712291
20
250.00000000000202
30
0
11
150.00000000000188
21
250.00000000000205
31
0
0
LINE
5
144
100
AcDbEntity
8
0
100
AcDbLine
10
150.00000000000188
20
250.00000000000205
30
0
11
150.00000000000182
21
277.30769230770215
31
0
0
LINE
5
145
100
AcDbEntity
8
0
100
AcDbLine
10
150.00000000000182
20
277.30769230770215
30
0
11
-53.735575287003492
21
313.74949405438036
31
0
0
ARC
5
146
100
AcDbEntity
8
0
100
AcDbCircle
10
-56.376680389986234
20
298.98383918116394
30
-9.3054976146569884e-46
40
14.999999999998057
210
-4.2158926703324458e-33
220
7.540888460991205e-34
230
1
100
AcDbArc
50
79.858854679419025
51
125.83765295425772
0
LINE
5
147
100
AcDbEntity
8
0
100
AcDbLine
10
-65.159038697646125
20
311.14402760716376
30
-9.2444637330576034e-32
11
-149.9999999999981
21
249.86999999999952
31
0
0
LINE
5
148
100
AcDbEntity
8
0
100
AcDbLine
10
-149.9999999999981
20
249.86999999999952
30
0
11
-149.99999999999704
21
-100.13000000000055
31
0
0
CIRCLE
5
149
100
AcDbEntity
8
0
100
AcDbCircle
10
100.00000000000257
20
9.8699999999992638
30
0
40
3.0000000000000071
210
-0
220
0
230
1
0
CIRCLE
5
150
100
AcDbEntity
8
0
100
AcDbCircle
10
2.4869699643447923e-12
20
39.869999999998981
30
0
40
3.0000000000000004
210
3.534112288266886e-47
220
-1.2325951644078309e-32
230
1
0
CIRCLE
5
151
100
AcDbEntity
8
0
100
AcDbCircle
10
100.00000000000249
20
39.86999999999928
30
0
40
3.0000000000000071
210
-0
220
0
230
1
0
CIRCLE
5
152
100
AcDbEntity
8
0
100
AcDbCircle
10
2.5729863399639059e-12
20
9.8699999999989885
30
0
40
3.0000000000000004
210
3.534112288266886e-47
220
-1.2325951644078309e-32
230
1
0
CIRCLE
5
153
100
AcDbEntity
8
0
100
AcDbCircle
10
-99.999999999997513
20
39.869999999998676
30
0
40
3.0000000000000071
210
-0
220
0
230
1
0
CIRCLE
5
154
100
AcDbEntity
8
0
100
AcDbCircle
10
-99.999999999997428
20
9.8699999999987043
30
0
40
3.0000000000000071
210
-0
220
0
230
1
0
CIRCLE
5
155
100
AcDbEntity
8
0
100
AcDbCircle
10
-99.999999999997328
20
-20.130000000001296
30
0
40
3.0000000000000071
210
-0
220
0
230
1
0
CIRCLE
5
156
100
AcDbEntity
8
0
100
AcDbCircle
10
2.6590027155830187e-12
20
-20.130000000001015
30
0
40
3.0000000000000004
210
3.534112288266886e-47
220
-1.2325951644078309e-32
230
1
0
CIRCLE
5
157
100
AcDbEntity
8
0
100
AcDbCircle
10
100.00000000000267
20
-20.130000000000731
30
0
40
3.0000000000000071
210
-0
220
0
230
1
0
ENDSEC
0
SECTION
2
OBJECTS
0
DICTIONARY
5
C
100
AcDbDictionary
3
ACAD_GROUP
350
D
3
ACAD_MLINESTYLE
350
17
0
DICTIONARY
5
D
100
AcDbDictionary
0
DICTIONARY
5
1A
330
C
100
AcDbDictionary
0
DICTIONARY
5
17
100
AcDbDictionary
0
ENDSEC
0
EOF
